<svg width="749" height="544" viewBox="0 0 749 544" fill="none" xmlns="http://www.w3.org/2000/svg">
<g clip-path="url(#clip0_34_25)">
<path d="M346.959 404.361H3.98634C2.92953 404.359 1.91638 403.939 1.1691 403.192C0.421815 402.444 0.00137852 401.431 0 400.374V81.8657C0.00138645 80.8089 0.421831 79.7958 1.16911 79.0485C1.91639 78.3012 2.92953 77.8808 3.98634 77.8794H346.959C348.016 77.8808 349.029 78.3012 349.776 79.0485C350.523 79.7958 350.944 80.8089 350.945 81.8657V400.374C350.944 401.43 350.524 402.444 349.776 403.191C349.029 403.938 348.016 404.359 346.959 404.36V404.361Z" fill="#F1F1F1"/>
<path d="M401.023 451.991H58.0508C56.994 451.989 55.9808 451.569 55.2336 450.822C54.4863 450.074 54.0658 449.061 54.0645 448.004V129.496C54.0658 128.439 54.4863 127.426 55.2336 126.678C55.9808 125.931 56.994 125.511 58.0508 125.509H401.023C402.08 125.511 403.093 125.931 403.84 126.678C404.588 127.426 405.008 128.439 405.01 129.496V448.004C405.008 449.06 404.588 450.074 403.841 450.821C403.093 451.568 402.08 451.989 401.023 451.99V451.991Z" fill="white"/>
<path d="M401.023 451.991H58.0508C56.994 451.989 55.9808 451.569 55.2336 450.822C54.4863 450.074 54.0658 449.061 54.0645 448.004V129.496C54.0658 128.439 54.4863 127.426 55.2336 126.678C55.9808 125.931 56.994 125.511 58.0508 125.509H401.023C402.08 125.511 403.093 125.931 403.84 126.678C404.588 127.426 405.008 128.439 405.01 129.496V448.004C405.008 449.06 404.588 450.074 403.841 450.821C403.093 451.568 402.08 451.989 401.023 451.99V451.991ZM58.0508 127.101C57.4174 127.102 56.8104 127.354 56.3625 127.802C55.9147 128.25 55.6624 128.857 55.6611 129.49V448.004C55.6624 448.637 55.9147 449.244 56.3625 449.692C56.8104 450.14 57.4174 450.392 58.0508 450.393H401.023C401.657 450.392 402.264 450.14 402.712 449.692C403.16 449.244 403.412 448.637 403.413 448.004V129.496C403.412 128.862 403.159 128.255 402.711 127.807C402.264 127.359 401.657 127.107 401.023 127.106L58.0508 127.101Z" fill="#E6E6E6"/>
<path d="M337.174 268.294H121.9C120.843 268.293 119.83 267.873 119.083 267.126C118.335 266.378 117.915 265.365 117.914 264.308V169.835C117.915 168.778 118.335 167.765 119.083 167.018C119.83 166.27 120.843 165.85 121.9 165.849H337.174C338.231 165.85 339.244 166.27 339.991 167.018C340.738 167.765 341.159 168.778 341.16 169.835V264.308C341.159 265.365 340.739 266.378 339.991 267.126C339.244 267.873 338.231 268.293 337.174 268.294Z" fill="#4140D8"/>
<path d="M155.286 206.246C154.569 206.247 153.882 206.533 153.376 207.04C152.869 207.547 152.585 208.235 152.585 208.952C152.585 209.669 152.869 210.356 153.376 210.864C153.882 211.371 154.569 211.657 155.286 211.658H303.788C304.505 211.657 305.192 211.371 305.698 210.864C306.205 210.356 306.489 209.669 306.489 208.952C306.489 208.235 306.205 207.547 305.698 207.04C305.192 206.533 304.505 206.247 303.788 206.246H155.286Z" fill="white"/>
<path d="M155.286 222.485C154.569 222.486 153.882 222.772 153.376 223.279C152.869 223.787 152.585 224.474 152.585 225.191C152.585 225.908 152.869 226.596 153.376 227.103C153.882 227.61 154.569 227.896 155.286 227.898H231.099C231.816 227.896 232.503 227.61 233.01 227.103C233.516 226.596 233.8 225.908 233.8 225.191C233.8 224.474 233.516 223.787 233.01 223.279C232.503 222.772 231.816 222.486 231.099 222.485H155.286Z" fill="white"/>
<path d="M90.3159 303.116C89.599 303.117 88.912 303.403 88.4056 303.91C87.8992 304.418 87.6147 305.105 87.6147 305.822C87.6147 306.539 87.8992 307.227 88.4056 307.734C88.912 308.242 89.599 308.527 90.3159 308.529H368.758C369.475 308.527 370.162 308.242 370.668 307.734C371.175 307.227 371.459 306.539 371.459 305.822C371.459 305.105 371.175 304.418 370.668 303.91C370.162 303.403 369.475 303.117 368.758 303.116H90.3159Z" fill="#E6E6E6"/>
<path d="M90.3159 319.355C89.599 319.357 88.912 319.643 88.4056 320.15C87.8992 320.657 87.6147 321.345 87.6147 322.062C87.6147 322.779 87.8992 323.466 88.4056 323.974C88.912 324.481 89.599 324.767 90.3159 324.768H296.069C296.786 324.767 297.473 324.481 297.98 323.974C298.486 323.466 298.771 322.779 298.771 322.062C298.771 321.345 298.486 320.657 297.98 320.15C297.473 319.643 296.786 319.357 296.069 319.355H90.3159Z" fill="#E6E6E6"/>
<path d="M90.3159 335.228C89.599 335.229 88.912 335.515 88.4056 336.022C87.8992 336.529 87.6147 337.217 87.6147 337.934C87.6147 338.651 87.8992 339.338 88.4056 339.846C88.912 340.353 89.599 340.639 90.3159 340.64H368.758C369.475 340.639 370.162 340.353 370.668 339.846C371.175 339.338 371.459 338.651 371.459 337.934C371.459 337.217 371.175 336.529 370.668 336.022C370.162 335.515 369.475 335.229 368.758 335.228H90.3159Z" fill="#E6E6E6"/>
<path d="M90.3159 351.467C89.599 351.469 88.912 351.754 88.4056 352.262C87.8992 352.769 87.6147 353.457 87.6147 354.174C87.6147 354.891 87.8992 355.578 88.4056 356.085C88.912 356.593 89.599 356.879 90.3159 356.88H296.069C296.786 356.879 297.473 356.593 297.98 356.085C298.486 355.578 298.771 354.891 298.771 354.174C298.771 353.457 298.486 352.769 297.98 352.262C297.473 351.754 296.786 351.469 296.069 351.467H90.3159Z" fill="#E6E6E6"/>
<path d="M367.036 414.651H285.437C284.38 414.65 283.367 414.23 282.62 413.482C281.872 412.735 281.452 411.722 281.451 410.665V397.591C281.452 396.534 281.872 395.521 282.62 394.773C283.367 394.026 284.38 393.606 285.437 393.604H367.036C368.093 393.606 369.107 394.026 369.854 394.773C370.601 395.521 371.022 396.534 371.023 397.591V410.665C371.022 411.722 370.601 412.735 369.854 413.482C369.107 414.23 368.093 414.65 367.036 414.651Z" fill="#4140D8"/>
<path d="M542.425 130.089L404.56 200.61L405.47 202.391L543.336 131.87L542.425 130.089Z" fill="#E5E5E5"/>
<path d="M405.465 385.6L404.554 387.38L542.431 457.88L543.341 456.1L405.465 385.6Z" fill="#E5E5E5"/>
<path d="M721 91C720.996 107.77 716.362 124.213 707.61 138.518C698.857 152.822 686.326 164.432 671.396 172.068C670.625 172.467 669.845 172.857 669.065 173.221C668.606 173.446 668.147 173.654 667.687 173.862C666.561 174.373 665.417 174.867 664.264 175.327C660.164 177.003 655.944 178.368 651.638 179.409C651.031 179.565 650.408 179.703 649.792 179.842C648.241 180.189 646.678 180.489 645.104 180.743C636.511 182.182 627.757 182.387 619.106 181.35C617.313 181.142 615.533 180.876 613.768 180.553C612.928 180.397 612.087 180.232 611.255 180.059C611.143 180.033 611.03 180.007 610.917 179.989C607.931 179.361 604.98 178.574 602.078 177.632C600.518 177.129 598.967 176.592 597.45 176.003C596.662 175.699 595.882 175.387 595.111 175.067C594.729 174.911 594.348 174.746 593.975 174.581C578.894 168.079 565.853 157.616 556.235 144.302C546.618 130.988 540.782 115.319 539.348 98.9573C537.913 82.5952 540.933 66.1498 548.087 51.3651C555.241 36.5804 566.263 24.0075 579.983 14.9798C593.703 5.95203 609.61 0.805928 626.018 0.087192C642.426 -0.631544 658.722 3.10389 673.179 10.8974C687.636 18.6908 699.714 30.2518 708.133 44.3543C716.552 58.4568 720.999 74.5751 721 91Z" fill="#F1F1F1"/>
<path d="M733 431C732.978 446.63 729.191 462.024 721.96 475.881C714.729 489.737 704.267 501.648 691.459 510.605C691.219 510.771 690.979 510.937 690.739 511.094C689.335 512.064 687.903 512.997 686.434 513.875C685.501 514.448 684.55 515.002 683.598 515.547C682.453 516.194 681.298 516.813 680.125 517.413C679.857 517.552 679.589 517.69 679.312 517.82C678.333 518.318 677.345 518.799 676.338 519.252C676.282 519.279 676.227 519.298 676.171 519.325C675.839 519.473 675.497 519.63 675.146 519.778C672.975 520.739 670.758 521.626 668.495 522.42C668.338 522.485 668.172 522.54 668.005 522.596C662.824 524.416 657.491 525.776 652.071 526.66C651.046 526.845 650.011 526.993 648.977 527.132C648.81 527.159 648.635 527.187 648.468 527.206C647.055 527.39 645.633 527.538 644.201 527.658C644.035 527.677 643.868 527.686 643.702 527.695C642.63 527.788 641.55 527.852 640.46 527.898C638.982 527.963 637.504 528 636.007 528C633.91 528 631.826 527.935 629.754 527.806C627.952 527.686 626.16 527.529 624.387 527.307C623.306 527.178 622.225 527.03 621.163 526.864C619.99 526.688 618.816 526.485 617.662 526.263C617.089 526.152 616.516 526.032 615.944 525.912C615.851 525.894 615.75 525.875 615.657 525.857C614.733 525.663 613.819 525.46 612.914 525.229C609.324 524.362 605.789 523.283 602.328 521.995C601.145 521.552 599.972 521.09 598.808 520.61C598.448 520.462 598.088 520.305 597.737 520.148C597.099 519.88 596.471 519.593 595.843 519.307C595.372 519.095 594.901 518.873 594.43 518.651C593.432 518.189 592.453 517.7 591.474 517.191C590.689 516.794 589.903 516.369 589.137 515.944C589.118 515.935 589.109 515.926 589.091 515.917C574.119 507.644 561.602 495.56 552.807 480.889C544.011 466.219 539.252 449.483 539.01 432.379C538.768 415.276 543.052 398.412 551.429 383.498C559.806 368.585 571.977 356.151 586.708 347.459C601.439 338.766 618.207 334.124 635.31 334.002C652.414 333.881 669.246 338.284 684.099 346.766C698.952 355.248 711.299 367.507 719.887 382.3C728.475 397.094 732.999 413.894 733 431Z" fill="#F1F1F1"/>
<path d="M627.94 29C620.389 29.009 613.151 32.0124 607.812 37.3515C602.472 42.6906 599.469 49.9294 599.46 57.48V78.73C599.462 79.7442 599.867 80.7161 600.585 81.4323C601.303 82.1485 602.276 82.5505 603.29 82.55H652.59C653.604 82.5506 654.577 82.1486 655.295 81.4324C656.013 80.7162 656.418 79.7442 656.42 78.73V57.48C656.41 49.9297 653.406 42.6914 648.068 37.3525C642.729 32.0136 635.49 29.0098 627.94 29Z" fill="#2F2E41"/>
<path d="M613.39 118.41L610.66 106.11C610.277 104.362 609.382 102.768 608.09 101.53C606.941 100.531 605.596 99.7849 604.14 99.34C603.97 99.3 603.8 99.26 603.62 99.2299C603.545 99.2086 603.468 99.1919 603.39 99.1799C602.165 98.9669 600.909 99.0096 599.701 99.3054C598.493 99.6012 597.36 100.144 596.372 100.899C595.383 101.654 594.562 102.605 593.96 103.693C593.357 104.781 592.986 105.982 592.87 107.22L590.55 121.73L587 143.95C587.43 144.14 587.87 144.33 588.31 144.51C589.2 144.88 590.1 145.24 591.01 145.59C592.76 146.27 594.55 146.89 596.35 147.47C599.699 148.557 603.104 149.465 606.55 150.19C606.68 150.21 606.81 150.24 606.94 150.27C607.9 150.47 608.87 150.66 609.84 150.84L614.69 124.27L613.39 118.41Z" fill="#2F2E41"/>
<path d="M620.914 82.2317C632.445 82.2317 641.793 72.884 641.793 61.353C641.793 49.8221 632.445 40.4744 620.914 40.4744C609.383 40.4744 600.035 49.8221 600.035 61.353C600.035 72.884 609.383 82.2317 620.914 82.2317Z" fill="#FFB7B7"/>
<path d="M643.48 131.23L639.02 96.07L638.08 88.62H638.07L637.65 88.61C636.23 88.56 634.85 88.55 633.49 88.6C625.143 88.6355 616.958 90.9002 609.78 95.16C607.901 96.3061 606.109 97.5896 604.42 99L604.34 99.08L604.14 99.34L597.05 108.46L597.04 108.64L596.35 147.47C599.699 148.557 603.104 149.465 606.55 150.19C606.68 150.21 606.81 150.24 606.94 150.27C607.9 150.47 608.87 150.66 609.84 150.84C611.88 151.21 613.933 151.517 616 151.76C625.982 152.956 636.084 152.721 646 151.06L643.48 131.23Z" fill="#4140D8"/>
<path d="M650.78 96.3001C647.495 92.426 643.036 89.7295 638.08 88.6201H638.07C636.748 88.3225 635.403 88.1452 634.05 88.0901L633.7 88.0801L633.49 88.6001L616.69 129.1L613.98 118.28L609.78 95.1601L609.75 94.9901L609.12 95.3601C607.173 96.4811 605.333 97.7764 603.62 99.2301C596.805 104.984 592.258 112.973 590.79 121.77C590.362 124.377 590.204 127.021 590.32 129.66L591.01 145.59C592.76 146.27 594.55 146.89 596.35 147.47C599.699 148.557 603.104 149.465 606.55 150.19C606.68 150.21 606.81 150.24 606.94 150.27C607.9 150.47 608.87 150.66 609.84 150.84C611.88 151.21 613.933 151.517 616 151.76C625.982 152.956 636.084 152.721 646 151.06C647.82 150.77 649.623 150.423 651.41 150.02C652.12 149.86 652.84 149.7 653.54 149.52L652.03 145.07L656.03 114.18C656.439 110.999 656.184 107.767 655.28 104.689C654.376 101.612 652.844 98.7551 650.78 96.3001Z" fill="#2F2E41"/>
<path d="M655.74 97.1599C655.025 94.9587 653.489 93.118 651.451 92.0209C649.413 90.9238 647.031 90.6548 644.8 91.2699C644.439 91.3624 644.085 91.4793 643.74 91.6199C642.082 92.296 640.663 93.4519 639.665 94.9395C638.667 96.4272 638.136 98.1787 638.14 99.9699L638.18 118.66L643.48 131.23L651.41 150.02C652.12 149.86 652.84 149.7 653.54 149.52C658.508 148.319 663.379 146.744 668.11 144.81C669.44 144.28 670.76 143.71 672.06 143.12C672.59 142.88 673.12 142.64 673.65 142.38L655.74 97.1599Z" fill="#2F2E41"/>
<path d="M619.51 36.6501H615.25C609.276 36.6522 603.548 39.0268 599.325 43.2519C595.101 47.4769 592.729 53.2064 592.73 59.1801V59.6001H622.88L623.19 55.2701L624.73 59.6001H629.37L629.99 51.0201L633.05 59.6001H642.03V59.1801C642.024 53.2082 639.65 47.4823 635.428 43.2586C631.206 39.0349 625.482 36.6582 619.51 36.6501Z" fill="#2F2E41"/>
<path d="M623.99 429.012C620.473 428.76 616.941 429.214 613.602 430.346C610.262 431.478 607.183 433.267 604.545 435.606C601.906 437.945 599.762 440.788 598.238 443.968C596.714 447.148 595.841 450.6 595.67 454.122L594 483.432C595.06 483.982 596.12 484.512 597.2 485.012C597.71 485.252 598.22 485.492 598.73 485.722C599.41 486.032 600.09 486.342 600.78 486.632C601.16 486.802 601.55 486.972 601.94 487.132C603.2 487.652 604.47 488.152 605.75 488.632C609.497 490.025 613.324 491.194 617.21 492.132C618.19 492.382 619.18 492.602 620.18 492.812C620.28 492.832 620.39 492.852 620.49 492.872C621.11 493.002 621.73 493.132 622.35 493.252L624.47 429.042L623.99 429.012Z" fill="#2F2E41"/>
<path d="M651.08 494.761C652.63 494.631 654.17 494.471 655.7 494.271C655.88 494.251 656.07 494.221 656.25 494.191C657.37 494.041 658.49 493.881 659.6 493.681C659.69 490.971 659.66 489.021 659.66 488.781L664.63 436.991L654.27 430.951L652.25 429.771L620.93 428.761L620.67 428.981L605.63 442.021L600.78 486.631C601.16 486.801 601.55 486.971 601.94 487.131C603.2 487.651 604.47 488.151 605.75 488.631C609.497 490.025 613.324 491.194 617.21 492.131C618.19 492.381 619.18 492.601 620.18 492.811C620.28 492.831 620.39 492.851 620.49 492.871C621.11 493.001 621.73 493.131 622.35 493.251C623.6 493.491 624.87 493.711 626.14 493.901C627.29 494.081 628.46 494.241 629.63 494.381C631.55 494.621 633.49 494.791 635.44 494.921C637.68 495.061 639.936 495.131 642.21 495.131C643.83 495.131 645.43 495.091 647.03 495.021C648.21 494.971 649.38 494.901 650.54 494.801L651.08 494.761Z" fill="#2F2E41"/>
<path d="M672.03 441.452L654.29 430.612L654.27 430.952L651.08 494.762C652.63 494.632 654.17 494.472 655.7 494.272C655.88 494.252 656.07 494.222 656.25 494.192C657.37 494.042 658.49 493.882 659.6 493.682C665.468 492.725 671.24 491.252 676.85 489.282C677.03 489.222 677.21 489.162 677.38 489.092L678.64 453.312C678.727 450.919 678.157 448.549 676.992 446.458C675.826 444.367 674.11 442.636 672.03 441.452Z" fill="#2F2E41"/>
<path d="M633.092 421.855C645.247 421.855 655.101 412.002 655.101 399.847C655.101 387.692 645.247 377.839 633.092 377.839C620.937 377.839 611.084 387.692 611.084 399.847C611.084 412.002 620.937 421.855 633.092 421.855Z" fill="#9F616A"/>
<path d="M625.135 367.351C647.299 360.959 653.591 379.33 653.591 379.33C664.275 386.418 657.586 395.304 657.586 395.304C660.281 395.903 654.891 411.679 653.094 411.28C652.135 411.067 649.669 414.01 647.577 416.802C646.86 416.801 646.145 416.87 645.441 417.007L649.499 401.994C649.499 401.994 635.82 399.899 631.626 393.309C627.614 387.005 614.405 385.015 610.646 389.226C610.424 388.015 609.968 386.859 609.305 385.822C608.792 385.034 608.121 384.361 607.334 383.846C610.658 369.722 625.135 367.351 625.135 367.351Z" fill="#2F2E41"/>
</g>
<defs>
<clipPath id="clip0_34_25">
<rect width="748.756" height="544" fill="white"/>
</clipPath>
</defs>
</svg>
