<svg width="10" height="10" viewBox="0 0 10 10" fill="none" xmlns="http://www.w3.org/2000/svg">
<path d="M4.99992 10C2.24296 10 0 7.75704 0 4.99992C0 2.24296 2.24296 0 4.99992 0C7.75704 0 10 2.24296 10 4.99992C10 7.75704 7.75704 10 4.99992 10ZM4.99992 0.696208C2.62693 0.696208 0.696208 2.62693 0.696208 4.99992C0.696208 7.37308 2.62693 9.30379 4.99992 9.30379C7.37308 9.30379 9.30379 7.37308 9.30379 4.99992C9.30379 2.62693 7.37308 0.696208 4.99992 0.696208Z" fill="#3F3D56"/>
<path d="M3.99774 7.30454C3.90289 7.30454 3.80838 7.26596 3.73971 7.19016C3.61054 7.04754 3.62141 6.82742 3.76418 6.69842L5.69578 4.94942L3.94707 3.01783C3.81789 2.87539 3.82911 2.65528 3.97155 2.52627C4.11399 2.39726 4.33428 2.40814 4.46311 2.55075L6.44532 4.74033C6.57453 4.88275 6.56366 5.10287 6.42086 5.23187L4.23128 7.21446C4.16465 7.27479 4.08102 7.30454 3.99774 7.30454Z" fill="#3F3D56"/>
</svg>
