<svg width="24" height="24" viewBox="0 0 24 24" fill="none" xmlns="http://www.w3.org/2000/svg">
<path d="M11.9998 24C5.3831 24 0 18.6169 0 11.9998C0 5.3831 5.3831 0 11.9998 0C18.6169 0 24 5.3831 24 11.9998C24 18.6169 18.6169 24 11.9998 24ZM11.9998 1.6709C6.30463 1.6709 1.6709 6.30463 1.6709 11.9998C1.6709 17.6954 6.30463 22.3291 11.9998 22.3291C17.6954 22.3291 22.3291 17.6954 22.3291 11.9998C22.3291 6.30463 17.6954 1.6709 11.9998 1.6709Z" fill="#3F3D56"/>
<path d="M9.59459 17.5309C9.36696 17.5309 9.14014 17.4383 8.97534 17.2564C8.66532 16.9141 8.6914 16.3858 9.03406 16.0762L13.6699 11.8786L9.473 7.24279C9.16297 6.90094 9.18989 6.37267 9.53174 6.06304C9.87359 5.75342 10.4023 5.77953 10.7115 6.12179L15.4688 11.3768C15.7789 11.7186 15.7528 12.2469 15.4101 12.5565L10.1551 17.3147C9.99518 17.4595 9.79448 17.5309 9.59459 17.5309Z" fill="#3F3D56"/>
</svg>
