<svg width="43" height="41" viewBox="0 0 43 41" fill="none" xmlns="http://www.w3.org/2000/svg">
<mask id="mask0_13_1128" style="mask-type:alpha" maskUnits="userSpaceOnUse" x="0" y="0" width="43" height="41">
<path fill-rule="evenodd" clip-rule="evenodd" d="M21.3558 0C9.93385 0 0.682617 9.25123 0.682617 20.6732C0.682617 29.821 6.60031 37.5476 14.8179 40.2868C15.8515 40.4677 16.2392 39.8475 16.2392 39.3048C16.2392 38.8138 16.2133 37.1858 16.2133 35.4545C11.0192 36.4106 9.67544 34.1882 9.26197 33.0254C9.0294 32.431 8.02159 30.5963 7.14298 30.1053C6.41942 29.7177 5.38576 28.7615 7.11713 28.7357C8.74515 28.7098 9.90801 30.2345 10.2956 30.8547C12.1562 33.9815 15.128 33.1029 16.3167 32.5602C16.4976 31.2165 17.0402 30.312 17.6346 29.7952C13.0348 29.2783 8.22832 27.4953 8.22832 19.5878C8.22832 17.3396 9.0294 15.479 10.3473 14.0319C10.1406 13.5151 9.41702 11.3961 10.554 8.55352C10.554 8.55352 12.2854 8.01085 16.2392 10.6725C17.893 10.2074 19.6502 9.9748 21.4075 9.9748C23.1647 9.9748 24.9219 10.2074 26.5757 10.6725C30.5295 7.985 32.2609 8.55352 32.2609 8.55352C33.3979 11.3961 32.6743 13.5151 32.4676 14.0319C33.7855 15.479 34.5866 17.3138 34.5866 19.5878C34.5866 27.5211 29.7542 29.2783 25.1545 29.7952C25.9039 30.4412 26.5499 31.6816 26.5499 33.6197C26.5499 36.3847 26.5241 38.6071 26.5241 39.3048C26.5241 39.8475 26.9117 40.4935 27.9453 40.2868C32.0493 38.9013 35.6155 36.2637 38.1419 32.7453C40.6684 29.2268 42.0278 25.0047 42.0289 20.6732C42.0289 9.25123 32.7777 0 21.3558 0Z" fill="#0E0BB7"/>
</mask>
<g mask="url(#mask0_13_1128)">
<rect x="0.682617" y="-0.413422" width="41.3463" height="41.3463" fill="white"/>
</g>
</svg>
