<svg width="44" height="42" viewBox="0 0 44 42" fill="none" xmlns="http://www.w3.org/2000/svg">
<circle cx="22.675" cy="20.675" r="20.675" fill="white"/>
<mask id="mask0_47_14" style="mask-type:alpha" maskUnits="userSpaceOnUse" x="0" y="0" width="42" height="42">
<circle cx="20.675" cy="20.675" r="20.675" fill="white"/>
</mask>
<g mask="url(#mask0_47_14)">
<path d="M35.4203 14.0939L38.3559 13.509C38.3559 13.509 35.89 16.2577 35.4203 16.4332C35.3765 17.0172 35.3765 17.6037 35.4203 18.1877C29.784 42.2829 9 31.6389 9 31.6389C16.5738 31.8143 17.2196 28.7147 17.2196 28.7147C12.8163 28.0714 11.9356 25.2057 11.9356 25.2057C12.3307 25.4133 12.7887 25.4684 13.2221 25.3605C13.6554 25.2526 14.0335 24.9893 14.2841 24.6209C9.5284 23.3927 10.1742 18.7725 10.1742 18.7725C11.0219 19.3822 12.0125 19.7648 13.0511 19.8837C12.5227 19.2404 8.06063 13.9184 10.7614 11.1697C10.7614 11.1697 14.0492 17.018 22.6798 17.5444L23.2669 17.4274C23.1671 17.0062 23.1276 16.573 23.1495 16.1408C23.1495 14.5121 23.799 12.9502 24.9551 11.7986C26.1112 10.647 27.6793 10 29.3142 10V10C33.4241 10 34.3047 12.3393 34.3047 12.3393L37.2403 10.5849C37.1816 10.5849 36.8881 13.509 35.4203 14.0939Z" fill="black"/>
</g>
</svg>
