<svg width="42" height="42" viewBox="0 0 42 42" fill="none" xmlns="http://www.w3.org/2000/svg">
<circle cx="20.675" cy="20.675" r="20.675" fill="white"/>
<path d="M33.4203 14.0939L36.3559 13.509C36.3559 13.509 33.89 16.2578 33.4203 16.4332C33.3765 17.0172 33.3765 17.6037 33.4203 18.1877C27.784 42.2829 7 31.6389 7 31.6389C14.5738 31.8143 15.2196 28.7147 15.2196 28.7147C10.8163 28.0714 9.93559 25.2057 9.93559 25.2057C10.3307 25.4133 10.7887 25.4684 11.2221 25.3605C11.6554 25.2526 12.0335 24.9893 12.2841 24.6209C7.5284 23.3927 8.17422 18.7725 8.17422 18.7725C9.02187 19.3822 10.0125 19.7648 11.0511 19.8837C10.5227 19.2404 6.06063 13.9184 8.76137 11.1697C8.76137 11.1697 12.0492 17.018 20.6798 17.5444L21.2669 17.4274C21.1671 17.0062 21.1276 16.573 21.1495 16.1408C21.1495 14.5121 21.799 12.9502 22.9551 11.7986C24.1112 10.647 25.6793 10 27.3142 10C31.4241 10 32.3047 12.3393 32.3047 12.3393L35.2403 10.5849C35.1816 10.5849 34.8881 13.509 33.4203 14.0939Z" fill="#7F57D5"/>
</svg>
