<svg width="42" height="42" viewBox="0 0 42 42" fill="none" xmlns="http://www.w3.org/2000/svg">
<mask id="mask0_13_1123" style="mask-type:alpha" maskUnits="userSpaceOnUse" x="0" y="0" width="42" height="42">
<path d="M33.449 14.6708L36.3846 14.0859C36.3846 14.0859 33.9187 16.8347 33.449 17.0101C33.4051 17.5941 33.4051 18.1806 33.449 18.7646C27.8126 42.8598 7.02869 32.2158 7.02869 32.2158C14.6025 32.3912 15.2483 29.2916 15.2483 29.2916C10.845 28.6483 9.96428 25.7826 9.96428 25.7826C10.3593 25.9902 10.8174 26.0453 11.2508 25.9374C11.6841 25.8295 12.0622 25.5662 12.3127 25.1978C7.55709 23.9696 8.2029 19.3494 8.2029 19.3494C9.05056 19.9591 10.0412 20.3417 11.0798 20.4606C10.5514 19.8173 6.08932 14.4953 8.79006 11.7466C8.79006 11.7466 12.0779 17.595 20.7085 18.1213L21.2956 18.0043C21.1958 17.5831 21.1563 17.1499 21.1782 16.7177C21.1782 15.089 21.8277 13.5271 22.9838 12.3755C24.1399 11.2239 25.7079 10.5769 27.3429 10.5769V10.5769C31.4527 10.5769 32.3334 12.9162 32.3334 12.9162L35.269 11.1618C35.2103 11.1618 34.9168 14.0859 33.449 14.6708Z" fill="#0E0BB7"/>
<path d="M20.6732 42C16.5844 42 12.5875 40.7875 9.18778 38.5159C5.7881 36.2443 3.13836 33.0156 1.57366 29.2381C0.00896125 25.4606 -0.400442 21.3039 0.397237 17.2937C1.19492 13.2835 3.16385 9.5999 6.05504 6.70871C8.94623 3.81752 12.6298 1.8486 16.64 1.05092C20.6502 0.253247 24.8069 0.662645 28.5844 2.22735C32.362 3.79205 35.5907 6.44178 37.8623 9.84146C40.1338 13.2411 41.3463 17.2381 41.3463 21.3269C41.3463 26.8097 39.1682 32.068 35.2913 35.945C31.4143 39.8219 26.156 42 20.6732 42V42ZM20.6732 1.63813C16.7791 1.63813 12.9725 2.79285 9.73471 4.95628C6.49692 7.1197 3.97336 10.1947 2.48317 13.7923C0.992979 17.3899 0.603071 21.3487 1.36276 25.1679C2.12245 28.9871 3.99762 32.4953 6.75114 35.2488C9.50465 38.0024 13.0129 39.8775 16.8321 40.6372C20.6513 41.3969 24.61 41.007 28.2077 39.5168C31.8053 38.0267 34.8803 35.5031 37.0437 32.2653C39.2071 29.0275 40.3619 25.2209 40.3619 21.3269C40.3619 18.7413 39.8526 16.1811 38.8632 13.7923C37.8737 11.4036 36.4235 9.23309 34.5952 7.40482C32.7669 5.57656 30.5965 4.1263 28.2077 3.13684C25.819 2.14739 23.2587 1.63813 20.6732 1.63813V1.63813Z" fill="#0E0BB7"/>
</mask>
<g mask="url(#mask0_13_1123)">
<rect y="0.653687" width="41.3463" height="41.3463" fill="white"/>
</g>
</svg>
