<svg width="42" height="42" viewBox="0 0 42 42" fill="none" xmlns="http://www.w3.org/2000/svg">
<mask id="mask0_124_61" style="mask-type:alpha" maskUnits="userSpaceOnUse" x="0" y="0" width="42" height="42">
<path d="M38.4064 0.657917H3.90224C3.45767 0.635646 3.01306 0.701624 2.59413 0.852073C2.17521 1.00252 1.79023 1.23445 1.46142 1.53447C1.13261 1.83448 0.866478 2.19665 0.678393 2.60005C0.490308 3.00346 0.384016 3.44014 0.365601 3.88485V38.4636C0.390713 39.3936 0.771362 40.2786 1.42924 40.9364C2.08712 41.5942 2.97219 41.9749 3.90224 42H38.3953C39.3012 41.9626 40.1561 41.5711 40.7762 40.9097C41.3963 40.2483 41.7319 39.37 41.7109 38.4636V3.90694C41.7219 3.47256 41.6435 3.04058 41.4806 2.63776C41.3177 2.23493 41.0737 1.86987 40.7639 1.56523C40.454 1.26058 40.0849 1.02285 39.6794 0.866777C39.2738 0.710701 38.8405 0.639611 38.4064 0.657917ZM13.208 35.1483H7.28413V16.7262H13.208V35.1483ZM10.445 13.9303C9.81843 13.9172 9.20967 13.7195 8.69503 13.3619C8.18039 13.0044 7.78277 12.5029 7.55199 11.9203C7.32122 11.3377 7.26759 10.6999 7.39779 10.087C7.52799 9.47402 7.83622 8.91315 8.28389 8.47464C8.73156 8.03614 9.29874 7.73953 9.91429 7.622C10.5298 7.50448 11.1664 7.57125 11.7442 7.81397C12.3219 8.05668 12.8152 8.46456 13.1621 8.98642C13.509 9.50828 13.6941 10.1209 13.6942 10.7476C13.7151 11.182 13.6424 11.6159 13.4811 12.0198C13.3199 12.4238 13.0738 12.7884 12.7594 13.0891C12.4451 13.3897 12.0699 13.6194 11.6592 13.7626C11.2484 13.9058 10.8118 13.9592 10.3787 13.9192L10.445 13.9303ZM34.8477 35.1483H28.9017V25.0697C28.9017 22.6606 28.0396 21.014 25.8956 21.014C25.2235 21.0212 24.5705 21.2381 24.0276 21.6343C23.4847 22.0305 23.0791 22.5864 22.8673 23.2242C22.7062 23.6891 22.6349 24.1804 22.6573 24.6719V35.1704H16.7335V16.7262H22.6573V19.29C23.1974 18.3561 23.9793 17.5851 24.9206 17.0581C25.862 16.531 26.928 16.2675 28.0065 16.2952C31.8857 16.2952 34.8255 18.859 34.8255 24.3846L34.8477 35.1483Z" fill="#0E0BB7"/>
</mask>
<g mask="url(#mask0_124_61)">
<rect x="0.365601" y="0.653694" width="41.3463" height="41.3463" rx="20.6731" fill="white"/>
</g>
</svg>
