<svg width="42" height="41" viewBox="0 0 42 41" fill="none" xmlns="http://www.w3.org/2000/svg">
<mask id="mask0_124_58" style="mask-type:alpha" maskUnits="userSpaceOnUse" x="0" y="0" width="42" height="41">
<path fill-rule="evenodd" clip-rule="evenodd" d="M20.6731 0C9.25123 0 0 9.25124 0 20.6732C0 29.821 5.91769 37.5476 14.1353 40.2868C15.1689 40.4677 15.5565 39.8475 15.5565 39.3048C15.5565 38.8138 15.5307 37.1858 15.5307 35.4545C10.3366 36.4106 8.99282 34.1882 8.57936 33.0254C8.34678 32.431 7.33897 30.5963 6.46036 30.1053C5.7368 29.7177 4.70314 28.7615 6.43452 28.7357C8.06253 28.7098 9.22539 30.2345 9.61301 30.8547C11.4736 33.9815 14.4454 33.1029 15.6341 32.5602C15.815 31.2165 16.3576 30.312 16.952 29.7952C12.3522 29.2783 7.5457 27.4953 7.5457 19.5878C7.5457 17.3396 8.34678 15.479 9.6647 14.0319C9.45797 13.5151 8.73441 11.3961 9.87143 8.55352C9.87143 8.55352 11.6028 8.01085 15.5565 10.6725C17.2104 10.2074 18.9676 9.9748 20.7248 9.9748C22.482 9.9748 24.2393 10.2074 25.8931 10.6725C29.8469 7.985 31.5782 8.55352 31.5782 8.55352C32.7153 11.3961 31.9917 13.5151 31.785 14.0319C33.1029 15.479 33.904 17.3138 33.904 19.5878C33.904 27.5211 29.0716 29.2783 24.4718 29.7952C25.2212 30.4412 25.8673 31.6816 25.8673 33.6197C25.8673 36.3847 25.8414 38.6071 25.8414 39.3048C25.8414 39.8475 26.2291 40.4935 27.2627 40.2868C31.3667 38.9013 34.9329 36.2637 37.4593 32.7453C39.9858 29.2268 41.3452 25.0047 41.3463 20.6732C41.3463 9.25124 32.0951 0 20.6731 0Z" fill="#0E0BB7"/>
</mask>
<g mask="url(#mask0_124_58)">
<rect y="-0.413422" width="41.3463" height="41.3463" fill="white"/>
</g>
</svg>
