<svg width="171" height="171" viewBox="0 0 171 171" fill="none" xmlns="http://www.w3.org/2000/svg">
<path d="M0.86322 0.710449H170.546V170.38H0.86322V0.710449Z" fill="#F7DF1E"/>
<path d="M45.4873 142.501L58.4728 134.641C60.981 139.083 63.257 142.842 68.7246 142.842C73.9665 142.842 77.2677 140.792 77.2677 132.823V78.6045H93.2128V133.042C93.2128 149.554 83.5413 157.072 69.4081 157.072C56.6546 157.072 49.2527 150.464 45.4937 142.494L45.4873 142.501ZM101.872 140.786L114.851 133.268C118.268 138.851 122.711 142.939 130.57 142.939C137.179 142.939 141.39 139.638 141.39 135.079C141.39 129.612 137.063 127.678 129.784 124.486L125.799 122.777C114.297 117.884 106.663 111.733 106.663 98.7469C106.663 86.7866 115.773 77.676 130.009 77.676C140.145 77.676 147.418 81.2093 152.673 90.4295L140.261 98.4052C137.527 93.505 134.568 91.5707 130.009 91.5707C125.341 91.5707 122.375 94.5302 122.375 98.4052C122.375 103.189 125.335 105.124 132.169 108.077L136.154 109.785C149.694 115.588 157.341 121.514 157.341 134.841C157.341 149.193 146.064 157.053 130.906 157.053C116.076 157.053 106.534 149.961 101.891 140.766" fill="#343434"/>
</svg>
