<svg width="151" height="213" viewBox="0 0 151 213" fill="none" xmlns="http://www.w3.org/2000/svg">
<path d="M75.0362 212.087L13.6725 195.071L0 41.6985H150.257L136.57 195.049L75.0362 212.087Z" fill="#264DE4"/>
<path d="M124.851 185.29L136.548 54.2463H75.1396V199.044L124.851 185.29Z" fill="#2965F1"/>
<path d="M25.8364 185.479L14.1392 54.4358H75.5473V199.233L25.8364 185.479Z" fill="#2965F1"/>
<path d="M31.3845 111.104L33.0714 129.911H75.1692V111.104H31.3845ZM27.996 73.0312L29.705 91.8384H75.1618V73.0312H27.959H27.996ZM75.1618 159.957H75.0804L54.1277 154.297L52.7886 139.293H33.8704L36.5043 168.828L75.036 179.548H75.1248L75.1618 159.957Z" fill="white"/>
<path d="M35.365 0H58.1452V9.52935H44.8869V19.0587H58.1452V28.5881H35.365V0ZM62.7397 0H85.5199V8.2864H72.232V9.94367H85.4903V29.0024H62.7027V20.3017H75.9609V18.6444H62.7027V0H62.7397ZM90.1144 0H112.895V8.2864H99.5697V9.94367H112.828V29.0024H90.0404V20.3017H103.299V18.6444H90.0404V0H90.1144Z" fill="#343434"/>
<path d="M118.791 111.104L122.187 73.0312H75.0362V91.8384H101.545L99.8362 111.075H75.0362V129.882H98.2011L95.9815 154.297L75.0362 159.972V179.541L113.598 168.85L113.879 165.669L118.318 116.143L118.776 111.089L118.791 111.104Z" fill="white"/>
</svg>
