<svg width="151" height="213" viewBox="0 0 151 213" fill="none" xmlns="http://www.w3.org/2000/svg">
<path d="M150.689 41.6807L136.999 195.02L75.4661 212.087L14.1037 195.02L0.43158 41.6807H150.689Z" fill="#E44D26"/>
<path d="M75.5562 199.044L125.277 185.264L136.955 54.2209H75.5562V199.044Z" fill="#F16529"/>
<path d="M75.9692 199.259L26.2486 185.479L14.5708 54.4358H75.9692V199.259Z" fill="#F16529"/>
<path d="M49.3978 91.8418H76.0052V73.0315H28.8448L29.2939 78.0799L33.9202 129.911H76.0142V111.101H51.1225L49.3978 91.8418ZM53.6737 139.317H34.8095L37.4415 168.853L75.9244 179.578H76.0142V159.95H75.9334L54.9852 154.291L53.6737 139.317Z" fill="white"/>
<path d="M14.4181 0H23.976V9.44108H32.7163V0H42.2742V28.6017H32.7163V19.0259H23.976V28.6017H14.4181V0ZM54.8413 9.48599H46.4243V0H72.8162V9.48599H64.3992V28.6017H54.8503V9.48599H54.8413ZM77.0112 0H86.9823L93.1177 10.0519L99.244 0H109.215V28.6017H99.6932V14.4266L93.1177 24.5953H92.956L86.3715 14.4266V28.6017H77.0112V0ZM113.967 0H123.525V19.1427H136.999V28.5927H113.994V0H113.967Z" fill="#343434"/>
<path d="M75.4932 129.911H98.6512L96.4684 154.309L75.4932 159.968V179.578L114.057 168.888L114.335 165.708L118.755 116.186L119.213 111.137H75.4932V129.947V129.911ZM75.4932 91.7968V91.8417H120.929L121.306 87.6108L122.205 78.0709L122.654 73.0225H75.4932V91.7878V91.7968Z" fill="white"/>
</svg>
