<svg width="170" height="171" viewBox="0 0 170 171" fill="none" xmlns="http://www.w3.org/2000/svg">
<rect x="0.3302" y="0.882812" width="169.67" height="169.67" rx="48" fill="#343434"/>
<g clip-path="url(#clip0_13_1081)">
<path d="M63.7839 150.758C75.7814 150.758 85.5185 141.045 85.5185 129.078V107.398H63.7839C51.7864 107.398 42.0493 117.11 42.0493 129.078C42.0493 141.045 51.7864 150.758 63.7839 150.758Z" fill="#0ACF83"/>
<path d="M42.0493 85.7176C42.0493 73.7502 51.7864 64.0376 63.7839 64.0376H85.5185V107.398H63.7839C51.7864 107.398 42.0493 97.685 42.0493 85.7176Z" fill="#A259FF"/>
<path d="M42.0494 42.3575C42.0494 30.3901 51.7865 20.6775 63.784 20.6775H85.5186V64.0375H63.784C51.7865 64.0375 42.0494 54.3249 42.0494 42.3575Z" fill="#F24E1E"/>
<path d="M85.5186 20.6775H107.253C119.251 20.6775 128.988 30.3901 128.988 42.3575C128.988 54.3249 119.251 64.0375 107.253 64.0375H85.5186V20.6775Z" fill="#FF7262"/>
<path d="M128.988 85.7176C128.988 97.685 119.251 107.398 107.253 107.398C95.2557 107.398 85.5186 97.685 85.5186 85.7176C85.5186 73.7502 95.2557 64.0376 107.253 64.0376C119.251 64.0376 128.988 73.7502 128.988 85.7176Z" fill="#1ABCFE"/>
</g>
<defs>
<clipPath id="clip0_13_1081">
<rect width="86.9558" height="130.08" fill="white" transform="translate(42.0406 20.6775)"/>
</clipPath>
</defs>
</svg>
