<svg width="168" height="199" viewBox="0 0 168 199" fill="none" xmlns="http://www.w3.org/2000/svg">
<path fill-rule="evenodd" clip-rule="evenodd" d="M117.054 28.6646L115.979 26.7947C115.819 26.5159 115.525 26.3492 115.203 26.3548L106.59 26.51C106.268 26.5157 105.966 26.7067 105.804 26.9918L101.478 34.6194C101.316 34.9043 101.315 35.2485 101.475 35.528L105.761 43.0003C105.922 43.2796 106.215 43.446 106.537 43.4402L115.15 43.285C115.472 43.2789 115.767 43.1013 115.928 42.8163L120.255 35.1888L120.653 34.487L117.054 28.6646ZM112.536 32.1405C112.516 32.1056 112.481 32.0747 112.448 32.0556C112.414 32.0365 112.383 32.0301 112.342 32.0307L109.389 32.0878C109.308 32.0895 109.228 32.1303 109.188 32.2013L107.7 34.8232C107.66 34.8944 107.666 34.9843 107.706 35.0541L109.173 37.6188C109.213 37.6881 109.286 37.7298 109.367 37.7287L112.32 37.6715C112.401 37.6704 112.481 37.6292 112.521 37.558L114.009 34.936C114.049 34.8651 114.043 34.7749 114.003 34.7052L112.536 32.1405Z" fill="#343434"/>
<path fill-rule="evenodd" clip-rule="evenodd" d="M75.2046 29.6086C73.8214 29.6086 72.4525 29.9577 71.2137 30.6729L4.8299 68.8538C2.34802 70.2841 0.838867 73.0423 0.838867 75.9044V152.532C0.838867 155.397 2.34963 158.016 4.8299 159.449L71.2137 197.763C73.6956 199.196 76.7138 199.196 79.1957 197.763L145.579 159.449C148.057 158.016 149.57 155.397 149.57 152.532V75.9044C149.57 73.0381 148.061 70.2841 145.579 68.8538L79.1957 30.6729C77.9569 29.9577 76.5879 29.6086 75.2046 29.6086Z" fill="#90DF54"/>
<path d="M75.8226 186.834C73.9348 186.834 72.06 186.339 70.4049 185.386L53.1599 175.176C50.5843 173.736 51.8411 173.226 52.6906 172.933C56.1248 171.73 56.8218 171.459 60.4875 169.377C60.8728 169.157 61.3771 169.235 61.7714 169.467L75.0197 177.329C75.4981 177.587 76.1769 177.587 76.6204 177.329L128.276 147.512C128.755 147.24 129.065 146.684 129.065 146.115V86.5075C129.065 85.9127 128.755 85.3825 128.266 85.0851L76.6308 55.2941C76.1524 55.0096 75.5188 55.0096 75.0404 55.2941L23.4154 85.0851C22.915 85.3696 22.5969 85.9256 22.5969 86.4945V146.103C22.5969 146.671 22.9073 147.215 23.3986 147.486L37.5442 155.658C45.2247 159.498 49.9184 154.973 49.9184 150.421V91.589C49.9184 90.7485 50.5778 90.102 51.4183 90.102H57.9609C58.7755 90.102 59.4479 90.7485 59.4479 91.589V150.447C59.4479 160.688 53.8621 166.571 44.1515 166.571C41.1646 166.571 38.8113 166.571 32.2428 163.338L18.692 155.529C17.0445 154.567 15.6775 153.191 14.727 151.538C13.7765 149.884 13.2756 148.01 13.2743 146.103V86.4945C13.2743 82.6155 15.3431 78.995 18.692 77.0814L70.3997 47.2515C73.6711 45.4025 78.0156 45.4025 81.2611 47.2515L132.904 77.0943C134.551 78.0526 135.919 79.4261 136.869 81.0778C137.82 82.7296 138.321 84.6017 138.322 86.5075V146.115C138.322 149.982 136.24 153.589 132.904 155.529L81.2611 185.359C79.6055 186.312 77.7278 186.811 75.8175 186.807" fill="#343434"/>
<path d="M91.7778 145.76C69.1759 145.76 64.437 135.385 64.437 126.683C64.437 125.855 65.1042 125.196 65.933 125.196H72.605C73.342 125.196 73.9627 125.733 74.079 126.461C75.0876 133.259 78.0874 136.688 91.7546 136.688C102.642 136.688 107.271 134.229 107.271 128.456C107.271 125.133 105.952 122.663 89.0392 121.008C74.8936 119.611 66.1529 116.495 66.1529 105.181C66.1529 94.7597 74.9453 88.5532 89.6728 88.5532C106.21 88.5532 114.408 94.2942 115.443 106.63C115.46 106.837 115.434 107.046 115.366 107.243C115.299 107.439 115.191 107.62 115.05 107.773C114.909 107.926 114.738 108.048 114.547 108.132C114.357 108.216 114.151 108.259 113.943 108.259H107.232C106.534 108.259 105.926 107.767 105.784 107.095C104.168 99.9447 100.263 97.656 89.647 97.656C77.7641 97.656 76.3806 101.794 76.3806 104.897C76.3806 108.66 78.0098 109.759 94.0432 111.879C109.921 113.987 117.46 116.961 117.46 128.119C117.46 139.369 108.072 145.821 91.7028 145.821L91.7778 145.76Z" fill="#343434"/>
<path fill-rule="evenodd" clip-rule="evenodd" d="M102.995 23.8047C103.163 23.5083 103.161 23.1475 102.989 22.8552L98.39 15.0634C98.3132 14.9305 98.2042 14.8219 98.0761 14.743L98.0056 14.703C97.872 14.6337 97.7229 14.5961 97.5675 14.5973L88.5205 14.6571C88.1823 14.6613 87.8695 14.8437 87.7016 15.1401L81.7252 25.7223C81.6421 25.8689 81.6403 26.0487 81.7281 26.1942C81.8099 26.3427 81.9678 26.4322 82.1372 26.4261L87.5096 26.4015C87.852 26.3943 88.1609 26.2135 88.3272 25.92L91.1262 20.9803C91.2932 20.6855 91.6037 20.5018 91.9421 20.4999L94.2325 20.4838C94.4027 20.4823 94.5643 20.5254 94.7077 20.6066C94.8488 20.6866 94.9722 20.8046 95.0548 20.9495L96.2175 22.9217C96.3899 23.2131 96.3925 23.5742 96.2255 23.869L93.4267 28.8084C93.2606 29.1016 93.2656 29.4619 93.4346 29.7578L96.1729 34.3759C96.2573 34.5237 96.4156 34.6134 96.5853 34.6095C96.7514 34.6079 96.9082 34.5159 96.9913 34.3693L102.995 23.8047ZM132.071 47.5531C132.03 47.6267 131.952 47.6727 131.867 47.6728L128.758 47.6958C128.674 47.6963 128.596 47.6518 128.553 47.5793L126.974 44.9003C126.931 44.8272 126.931 44.7372 126.972 44.6637L128.505 41.9581C128.547 41.8844 128.624 41.8383 128.708 41.8368L131.817 41.8109C131.902 41.8103 131.981 41.8551 132.025 41.9286L133.602 44.6098C133.645 44.6834 133.646 44.7732 133.604 44.847L132.071 47.5531ZM144.059 27.8724C143.972 27.7287 143.815 27.6424 143.647 27.6445C143.48 27.6474 143.325 27.7387 143.242 27.8853L137.309 38.3559C137.251 38.459 137.142 38.523 137.024 38.524C136.906 38.5253 136.796 38.4628 136.735 38.3606L135.584 36.4078C135.413 36.1163 135.099 35.9387 134.761 35.9412L125.703 36.0129C125.365 36.015 125.054 36.198 124.888 36.4912L120.422 44.3715C120.255 44.6663 120.259 45.0261 120.43 45.3188L125.022 53.1279C125.194 53.4189 125.508 53.5967 125.846 53.595L134.906 53.519C135.244 53.515 135.556 53.3338 135.723 53.039L146.851 33.3994C147.02 33.1004 147.014 32.7333 146.835 32.4393L144.059 27.8724ZM157.006 58.0134C157.343 58.0098 157.653 57.8264 157.819 57.5332L158.902 55.6233C159.068 55.3295 159.065 54.9699 158.895 54.6781L154.344 46.8984C154.172 46.6051 153.858 46.4271 153.518 46.4301L144.462 46.5023C144.122 46.5053 143.813 46.6874 143.646 46.9822L139.182 54.8593C139.014 55.1557 139.019 55.5199 139.192 55.8116L143.782 63.5179C143.951 63.8027 144.256 63.9778 144.588 63.9809L149.981 64.0255C150.151 64.026 150.311 63.9356 150.395 63.7874C150.479 63.6392 150.478 63.456 150.39 63.3104L145.757 55.4801C145.67 55.3346 145.668 55.1529 145.751 55.0064L147.152 52.5353C147.235 52.3877 147.389 52.2956 147.56 52.2952L150.394 52.2732C150.563 52.2712 150.72 52.3597 150.805 52.5059L152.244 54.9495C152.331 55.0941 152.332 55.2757 152.249 55.4223L151.148 57.365C151.065 57.5116 151.066 57.6932 151.152 57.8394C151.238 57.984 151.396 58.0735 151.565 58.0715L157.006 58.0134Z" fill="#343434"/>
<path fill-rule="evenodd" clip-rule="evenodd" d="M149.919 53.5108C149.984 53.5097 150.045 53.544 150.077 53.6002L150.959 55.0978C150.992 55.1539 150.992 55.2231 150.96 55.2795L150.103 56.7921C150.071 56.8484 150.012 56.8837 149.947 56.8843L148.209 56.8977C148.144 56.8984 148.083 56.8641 148.051 56.8082L147.17 55.3111C147.136 55.2545 147.135 55.1849 147.167 55.1285L148.024 53.616C148.056 53.5596 148.115 53.5238 148.181 53.5238L149.919 53.5108Z" fill="#90DF54"/>
</svg>
