<svg width="171" height="171" viewBox="0 0 171 171" fill="none" xmlns="http://www.w3.org/2000/svg">
<path d="M85.7341 170.501C132.587 170.501 170.569 132.519 170.569 85.6662C170.569 38.8132 132.587 0.831299 85.7341 0.831299C38.8811 0.831299 0.89917 38.8132 0.89917 85.6662C0.89917 132.519 38.8811 170.501 85.7341 170.501Z" fill="#90DF54"/>
<path d="M110.503 36.1792C110.503 36.1792 102.359 44.0789 93.5532 47.2648C28.3367 70.8542 55.8409 116.823 56.7384 116.974C56.7384 116.974 60.3955 110.606 65.3356 106.973C96.6829 83.9275 103.055 57.4015 103.055 57.4015C103.055 57.4015 96.0205 89.3213 68.1321 109.183C61.9718 113.567 57.8021 124.363 56.0359 135.152C56.0359 135.152 60.4021 133.388 62.2797 132.91C63.0118 128.132 64.5426 123.557 67.1315 119.47C106.109 124.111 118.875 92.704 120.542 81.7511C124.479 55.8856 110.504 36.1787 110.504 36.1787" fill="#283D16"/>
</svg>
