<svg width="783" height="464" viewBox="0 0 783 464" fill="none" xmlns="http://www.w3.org/2000/svg">
<path d="M335.116 315.473H4.43805C3.41912 315.471 2.44229 315.066 1.72179 314.346C1.0013 313.625 0.595934 312.648 0.594604 311.629V4.53812C0.595941 3.51919 1.00131 2.54237 1.72181 1.82188C2.4423 1.10138 3.41912 0.696021 4.43805 0.694687H335.116C336.135 0.696021 337.112 1.10138 337.832 1.82188C338.553 2.54237 338.958 3.51919 338.96 4.53812V311.629C338.958 312.648 338.553 313.624 337.833 314.345C337.112 315.066 336.135 315.472 335.116 315.473Z" fill="#858585"/>
<path d="M388.116 361.473H57.438C56.4191 361.471 55.4423 361.066 54.7218 360.346C54.0013 359.625 53.5959 358.648 53.5946 357.629V50.5381C53.5959 49.5192 54.0013 48.5424 54.7218 47.8219C55.4423 47.1014 56.4191 46.696 57.438 46.6947H388.116C389.135 46.696 390.112 47.1014 390.832 47.8219C391.553 48.5424 391.958 49.5192 391.959 50.5381V357.629C391.958 358.648 391.553 359.624 390.832 360.345C390.112 361.066 389.135 361.471 388.116 361.472V361.473Z" fill="white"/>
<path d="M388.116 361.473H57.438C56.4191 361.471 55.4423 361.066 54.7218 360.346C54.0013 359.625 53.5959 358.648 53.5946 357.629V50.5381C53.5959 49.5192 54.0013 48.5424 54.7218 47.8219C55.4423 47.1014 56.4191 46.696 57.438 46.6947H388.116C389.135 46.696 390.112 47.1014 390.832 47.8219C391.553 48.5424 391.958 49.5192 391.959 50.5381V357.629C391.958 358.648 391.553 359.624 390.832 360.345C390.112 361.066 389.135 361.471 388.116 361.472V361.473ZM57.438 48.229C56.8274 48.2304 56.2421 48.4735 55.8103 48.9053C55.3785 49.3371 55.1353 49.9224 55.134 50.5331V357.629C55.1353 358.239 55.3785 358.824 55.8103 359.256C56.2421 359.688 56.8274 359.931 57.438 359.933H388.116C388.727 359.931 389.312 359.688 389.744 359.256C390.176 358.825 390.419 358.239 390.42 357.629V50.5381C390.419 49.9275 390.176 49.3422 389.744 48.9104C389.312 48.4786 388.727 48.2354 388.116 48.2341L57.438 48.229Z" fill="#E6E6E6"/>
<path d="M325.995 184.468H118.438C117.419 184.467 116.442 184.062 115.722 183.341C115.001 182.621 114.596 181.644 114.595 180.625V89.5381C114.596 88.5191 115.001 87.5422 115.722 86.8217C116.442 86.1011 117.419 85.6958 118.438 85.6947H325.995C327.014 85.6958 327.991 86.1011 328.711 86.8217C329.432 87.5422 329.837 88.5191 329.838 89.5381V180.625C329.837 181.644 329.432 182.621 328.711 183.341C327.991 184.062 327.014 184.467 325.995 184.468Z" fill="black"/>
<path d="M151.199 124.695C150.508 124.696 149.845 124.972 149.357 125.461C148.869 125.95 148.595 126.613 148.595 127.304C148.595 127.995 148.869 128.658 149.357 129.147C149.845 129.637 150.508 129.912 151.199 129.913H294.378C295.069 129.912 295.731 129.637 296.22 129.147C296.708 128.658 296.982 127.995 296.982 127.304C296.982 126.613 296.708 125.95 296.22 125.461C295.731 124.972 295.069 124.696 294.378 124.695H151.199Z" fill="white"/>
<path d="M151.199 140.695C150.508 140.696 149.845 140.972 149.357 141.461C148.869 141.95 148.595 142.613 148.595 143.304C148.595 143.995 148.869 144.658 149.357 145.147C149.845 145.637 150.508 145.912 151.199 145.913H224.295C224.986 145.912 225.648 145.637 226.136 145.147C226.625 144.658 226.899 143.995 226.899 143.304C226.899 142.613 226.625 141.95 226.136 141.461C225.648 140.972 224.986 140.696 224.295 140.695H151.199Z" fill="white"/>
<path d="M88.1989 217.695C87.5077 217.696 86.8453 217.972 86.3571 218.461C85.8688 218.95 85.5946 219.613 85.5946 220.304C85.5946 220.995 85.8688 221.658 86.3571 222.147C86.8453 222.637 87.5077 222.912 88.1989 222.913H356.66C357.351 222.912 358.014 222.637 358.502 222.147C358.99 221.658 359.264 220.995 359.264 220.304C359.264 219.613 358.99 218.95 358.502 218.461C358.014 217.972 357.351 217.696 356.66 217.695H88.1989Z" fill="#E6E6E6"/>
<path d="M88.1989 233.695C87.5077 233.696 86.8453 233.972 86.3571 234.461C85.8688 234.95 85.5946 235.613 85.5946 236.304C85.5946 236.995 85.8688 237.658 86.3571 238.147C86.8453 238.637 87.5077 238.912 88.1989 238.913H286.577C287.268 238.912 287.93 238.637 288.419 238.147C288.907 237.658 289.181 236.995 289.181 236.304C289.181 235.613 288.907 234.95 288.419 234.461C287.93 233.972 287.268 233.696 286.577 233.695H88.1989Z" fill="#E6E6E6"/>
<path d="M88.1989 248.695C87.5077 248.696 86.8453 248.972 86.3571 249.461C85.8688 249.95 85.5946 250.613 85.5946 251.304C85.5946 251.995 85.8688 252.658 86.3571 253.147C86.8453 253.637 87.5077 253.912 88.1989 253.913H356.66C357.351 253.912 358.014 253.637 358.502 253.147C358.99 252.658 359.264 251.995 359.264 251.304C359.264 250.613 358.99 249.95 358.502 249.461C358.014 248.972 357.351 248.696 356.66 248.695H88.1989Z" fill="#E6E6E6"/>
<path d="M88.1989 264.695C87.5077 264.696 86.8453 264.972 86.3571 265.461C85.8688 265.95 85.5946 266.613 85.5946 267.304C85.5946 267.995 85.8688 268.658 86.3571 269.147C86.8453 269.637 87.5077 269.912 88.1989 269.913H286.577C287.268 269.912 287.93 269.637 288.419 269.147C288.907 268.658 289.181 267.995 289.181 267.304C289.181 266.613 288.907 265.95 288.419 265.461C287.93 264.972 287.268 264.696 286.577 264.695H88.1989Z" fill="#E6E6E6"/>
<path d="M355.112 325.987H276.438C275.419 325.986 274.442 325.58 273.722 324.86C273.001 324.139 272.596 323.162 272.595 322.143V309.538C272.596 308.519 273.001 307.542 273.722 306.822C274.442 306.101 275.419 305.696 276.438 305.695H355.112C356.131 305.696 357.108 306.101 357.829 306.822C358.549 307.542 358.955 308.519 358.956 309.538V322.143C358.955 323.162 358.549 324.139 357.829 324.86C357.108 325.58 356.131 325.986 355.112 325.987V325.987Z" fill="black"/>
<path d="M243.753 419.587C263.525 419.587 279.554 403.568 279.554 383.808C279.554 364.047 263.525 348.029 243.753 348.029C223.981 348.029 207.952 364.047 207.952 383.808C207.952 403.568 223.981 419.587 243.753 419.587Z" fill="#F2F2F2"/>
<path d="M249.574 414.351C269.347 414.351 285.375 398.332 285.375 378.572C285.375 358.811 269.347 342.792 249.574 342.792C229.802 342.792 213.773 358.811 213.773 378.572C213.773 398.332 229.802 414.351 249.574 414.351Z" fill="black"/>
<path d="M721.361 338.983H278.406V340.19H721.361V338.983Z" fill="#858585"/>
<path d="M507.813 79.9594H350.592V76.7209H279.301V79.9594H121.432C120.035 79.9594 118.652 80.2343 117.362 80.7685C116.072 81.3026 114.899 82.0855 113.912 83.0724C112.924 84.0593 112.141 85.231 111.607 86.5205C111.072 87.81 110.797 89.1921 110.797 90.5878V305.742C110.797 308.561 111.917 311.264 113.912 313.257C115.906 315.25 118.611 316.37 121.432 316.37H507.813C510.634 316.37 513.339 315.25 515.333 313.257C517.328 311.264 518.448 308.561 518.448 305.742V90.5878C518.448 89.1921 518.173 87.81 517.639 86.5205C517.104 85.231 516.321 84.0593 515.333 83.0724C514.346 82.0855 513.173 81.3026 511.883 80.7685C510.593 80.2343 509.21 79.9594 507.813 79.9594V79.9594Z" fill="#858585"/>
<path d="M504.19 98.7427H125.055V312.484H504.19V98.7427Z" fill="black"/>
<path d="M314.298 92.9134C316.446 92.9134 318.187 91.1735 318.187 89.0272C318.187 86.8809 316.446 85.141 314.298 85.141C312.151 85.141 310.41 86.8809 310.41 89.0272C310.41 91.1735 312.151 92.9134 314.298 92.9134Z" fill="black"/>
<path opacity="0.1" d="M395.764 312.484H125.055V98.743L395.764 312.484Z" fill="white"/>
<path d="M184.378 296.49C204.506 296.49 220.822 280.183 220.822 260.068C220.822 239.953 204.506 223.647 184.378 223.647C164.251 223.647 147.935 239.953 147.935 260.068C147.935 280.183 164.251 296.49 184.378 296.49Z" fill="#F2F2F2"/>
<path d="M438.176 214.015H402.761V221.411H438.176V214.015Z" fill="#858585"/>
<path d="M480.992 156.434H359.945V159.604H480.992V156.434Z" fill="#858585"/>
<path d="M480.992 166.471H359.945V169.641H480.992V166.471Z" fill="#858585"/>
<path d="M480.992 176.508H359.945V179.678H480.992V176.508Z" fill="#858585"/>
<path d="M480.992 186.545H359.945V189.715H480.992V186.545Z" fill="#858585"/>
<path d="M480.992 196.582H359.945V199.752H480.992V196.582Z" fill="#858585"/>
<path d="M480.992 103.079H466.192V117.871H480.992V103.079Z" fill="#F2F2F2"/>
<path d="M487.864 124.738H469.892V106.777H487.864V124.738ZM470.673 123.957H487.082V107.558H470.673V123.957Z" fill="#858585"/>
<path d="M529.093 308.598H492.092V305.933C492.092 305.864 492.079 305.795 492.052 305.731C492.026 305.667 491.987 305.609 491.938 305.56C491.888 305.511 491.83 305.472 491.766 305.445C491.702 305.419 491.633 305.405 491.564 305.405H478.878C478.808 305.405 478.739 305.419 478.675 305.445C478.611 305.472 478.553 305.511 478.504 305.56C478.455 305.609 478.416 305.667 478.389 305.731C478.363 305.795 478.349 305.864 478.349 305.933V308.598H470.42V305.933C470.42 305.864 470.407 305.795 470.38 305.731C470.353 305.667 470.314 305.609 470.265 305.56C470.216 305.511 470.158 305.472 470.094 305.445C470.03 305.419 469.961 305.405 469.892 305.405H457.206C457.136 305.405 457.067 305.419 457.003 305.445C456.939 305.472 456.881 305.511 456.832 305.56C456.783 305.609 456.744 305.667 456.717 305.731C456.691 305.795 456.677 305.864 456.677 305.933V308.598H448.748V305.933C448.748 305.864 448.735 305.795 448.708 305.731C448.681 305.667 448.642 305.609 448.593 305.56C448.544 305.511 448.486 305.472 448.422 305.445C448.358 305.419 448.289 305.405 448.22 305.405H435.533C435.464 305.405 435.395 305.419 435.331 305.445C435.267 305.472 435.209 305.511 435.16 305.56C435.111 305.609 435.072 305.667 435.045 305.731C435.019 305.795 435.005 305.864 435.005 305.933V308.598H427.076V305.933C427.076 305.864 427.062 305.795 427.036 305.731C427.009 305.667 426.97 305.609 426.921 305.56C426.872 305.511 426.814 305.472 426.75 305.445C426.686 305.419 426.617 305.405 426.548 305.405H413.861C413.792 305.405 413.723 305.419 413.659 305.445C413.595 305.472 413.537 305.511 413.488 305.56C413.439 305.609 413.4 305.667 413.373 305.731C413.346 305.795 413.333 305.864 413.333 305.933V308.598H405.404V305.933C405.404 305.864 405.39 305.795 405.364 305.731C405.337 305.667 405.298 305.609 405.249 305.56C405.2 305.511 405.142 305.472 405.078 305.445C405.014 305.419 404.945 305.405 404.875 305.405H392.189C392.12 305.405 392.051 305.419 391.987 305.445C391.923 305.472 391.865 305.511 391.816 305.56C391.766 305.609 391.728 305.667 391.701 305.731C391.674 305.795 391.661 305.864 391.661 305.933V308.598H383.732V305.933C383.732 305.864 383.718 305.795 383.692 305.731C383.665 305.667 383.626 305.609 383.577 305.56C383.528 305.511 383.47 305.472 383.406 305.445C383.341 305.419 383.273 305.405 383.203 305.405H370.517C370.448 305.405 370.379 305.419 370.315 305.445C370.251 305.472 370.193 305.511 370.143 305.56C370.094 305.609 370.055 305.667 370.029 305.731C370.002 305.795 369.989 305.864 369.989 305.933V308.598H362.06V305.933C362.06 305.864 362.046 305.795 362.02 305.731C361.993 305.667 361.954 305.609 361.905 305.56C361.856 305.511 361.798 305.472 361.734 305.445C361.669 305.419 361.601 305.405 361.531 305.405H262.157C262.087 305.405 262.019 305.419 261.955 305.445C261.89 305.472 261.832 305.511 261.783 305.56C261.734 305.609 261.695 305.667 261.668 305.731C261.642 305.795 261.628 305.864 261.628 305.933V308.598H253.699V305.933C253.699 305.864 253.686 305.795 253.659 305.731C253.633 305.667 253.594 305.609 253.545 305.56C253.496 305.511 253.437 305.472 253.373 305.445C253.309 305.419 253.24 305.405 253.171 305.405H240.485C240.415 305.405 240.347 305.419 240.282 305.445C240.218 305.472 240.16 305.511 240.111 305.56C240.062 305.609 240.023 305.667 239.996 305.731C239.97 305.795 239.956 305.864 239.956 305.933V308.598H232.027V305.933C232.027 305.864 232.014 305.795 231.987 305.731C231.961 305.667 231.922 305.609 231.873 305.56C231.823 305.511 231.765 305.472 231.701 305.445C231.637 305.419 231.568 305.405 231.499 305.405H218.813C218.743 305.405 218.674 305.419 218.61 305.445C218.546 305.472 218.488 305.511 218.439 305.56C218.39 305.609 218.351 305.667 218.324 305.731C218.298 305.795 218.284 305.864 218.284 305.933V308.598H210.355V305.933C210.355 305.864 210.342 305.795 210.315 305.731C210.288 305.667 210.25 305.609 210.2 305.56C210.151 305.511 210.093 305.472 210.029 305.445C209.965 305.419 209.896 305.405 209.827 305.405H197.141C197.071 305.405 197.002 305.419 196.938 305.445C196.874 305.472 196.816 305.511 196.767 305.56C196.718 305.609 196.679 305.667 196.652 305.731C196.626 305.795 196.612 305.864 196.612 305.933V308.598H188.683V305.933C188.683 305.864 188.67 305.795 188.643 305.731C188.616 305.667 188.577 305.609 188.528 305.56C188.479 305.511 188.421 305.472 188.357 305.445C188.293 305.419 188.224 305.405 188.155 305.405H175.468C175.399 305.405 175.33 305.419 175.266 305.445C175.202 305.472 175.144 305.511 175.095 305.56C175.046 305.609 175.007 305.667 174.98 305.731C174.954 305.795 174.94 305.864 174.94 305.933V308.598H167.011V305.933C167.011 305.864 166.997 305.795 166.971 305.731C166.944 305.667 166.905 305.609 166.856 305.56C166.807 305.511 166.749 305.472 166.685 305.445C166.621 305.419 166.552 305.405 166.482 305.405H153.796C153.727 305.405 153.658 305.419 153.594 305.445C153.53 305.472 153.472 305.511 153.423 305.56C153.374 305.609 153.335 305.667 153.308 305.731C153.281 305.795 153.268 305.864 153.268 305.933V308.598H145.339V305.933C145.339 305.864 145.325 305.795 145.299 305.731C145.272 305.667 145.233 305.609 145.184 305.56C145.135 305.511 145.077 305.472 145.013 305.445C144.949 305.419 144.88 305.405 144.81 305.405H132.124C132.055 305.405 131.986 305.419 131.922 305.445C131.858 305.472 131.8 305.511 131.751 305.56C131.701 305.609 131.663 305.667 131.636 305.731C131.609 305.795 131.596 305.864 131.596 305.933V308.598H107.281C103.916 308.598 100.689 309.933 98.3103 312.311C95.9312 314.689 94.5946 317.914 94.5946 321.276V327.009C94.5946 330.371 95.9312 333.596 98.3103 335.974C100.689 338.352 103.916 339.687 107.281 339.687H529.093C532.458 339.687 535.685 338.352 538.064 335.974C540.443 333.596 541.78 330.371 541.78 327.009V321.276C541.78 317.914 540.443 314.689 538.064 312.311C535.685 309.933 532.458 308.598 529.093 308.598Z" fill="#858585"/>
<path d="M193.2 282.816C184.116 282.816 175.237 280.125 167.684 275.081C160.131 270.038 154.245 262.869 150.769 254.482C147.292 246.095 146.383 236.866 148.155 227.963C149.927 219.059 154.301 210.881 160.724 204.462C167.147 198.043 175.331 193.671 184.24 191.9C193.149 190.129 202.383 191.038 210.775 194.512C219.167 197.986 226.34 203.869 231.387 211.417C236.433 218.965 239.127 227.839 239.127 236.917C239.113 249.086 234.27 260.753 225.66 269.358C217.05 277.962 205.376 282.803 193.2 282.816ZM193.2 192.226C184.355 192.226 175.709 194.847 168.355 199.758C161.002 204.669 155.27 211.648 151.885 219.815C148.501 227.981 147.615 236.967 149.34 245.636C151.066 254.305 155.325 262.269 161.579 268.519C167.833 274.769 175.801 279.025 184.476 280.75C193.15 282.474 202.141 281.589 210.313 278.207C218.484 274.824 225.468 269.096 230.382 261.746C235.296 254.397 237.918 245.756 237.918 236.917C237.905 225.068 233.189 213.709 224.806 205.331C216.422 196.952 205.056 192.239 193.2 192.226V192.226Z" fill="#858585"/>
<path d="M602.918 88.3488H448.82V89.5566H602.918V88.3488Z" fill="#858585"/>
<path d="M783 407.227H340.046V408.435H783V407.227Z" fill="#858585"/>
<path d="M365.124 462.79H211.027V463.998H365.124V462.79Z" fill="#858585"/>
<path d="M396.142 400.86H379.222V417.77H396.142V400.86Z" fill="black"/>
<path d="M406.415 408.107H385.869V387.573H406.415V408.107ZM386.762 407.214H405.522V388.466H386.762V407.214Z" fill="#858585"/>
<path d="M592.541 81.9813H575.62V98.8915H592.541V81.9813Z" fill="black"/>
<path d="M602.814 89.2285H582.268V68.6947H602.814V89.2285ZM583.161 88.3358H601.921V69.5875H583.161V88.3358Z" fill="#858585"/>
<path d="M762.955 400.86H746.034V417.77H762.955V400.86Z" fill="black"/>
<path d="M773.228 408.107H752.682V387.573H773.228V408.107ZM753.575 407.214H772.335V388.466H753.575V407.214Z" fill="#858585"/>
<path d="M733.447 208.783H732.01V169.429C732.01 166.438 731.42 163.476 730.275 160.713C729.13 157.95 727.451 155.439 725.335 153.324C723.218 151.209 720.706 149.531 717.941 148.386C715.176 147.242 712.212 146.653 709.219 146.653H625.793C622.8 146.653 619.837 147.242 617.071 148.386C614.306 149.531 611.794 151.209 609.678 153.324C607.561 155.439 605.883 157.95 604.737 160.713C603.592 163.476 603.002 166.438 603.002 169.429V385.326C603.002 388.317 603.592 391.278 604.737 394.042C605.883 396.805 607.561 399.316 609.678 401.431C611.794 403.546 614.306 405.224 617.071 406.369C619.837 407.513 622.8 408.102 625.793 408.102H709.219C712.212 408.102 715.176 407.513 717.941 406.369C720.706 405.224 723.218 403.546 725.335 401.431C727.451 399.316 729.13 396.805 730.275 394.042C731.42 391.278 732.01 388.317 732.01 385.326V236.795H733.447V208.783Z" fill="#858585"/>
<path d="M727.157 170.768V386.349C727.157 390.861 725.365 395.188 722.174 398.378C718.982 401.569 714.653 403.361 710.139 403.362H626.31C621.796 403.361 617.468 401.569 614.276 398.378C611.085 395.188 609.292 390.861 609.293 386.349V170.768C609.294 166.258 611.087 161.932 614.278 158.743C617.469 155.554 621.797 153.762 626.31 153.761H636.481C635.98 154.988 635.789 156.319 635.925 157.637C636.06 158.955 636.518 160.22 637.258 161.32C637.998 162.419 638.997 163.32 640.167 163.943C641.337 164.566 642.642 164.892 643.968 164.892H691.763C693.088 164.892 694.394 164.566 695.564 163.943C696.734 163.32 697.733 162.419 698.473 161.32C699.213 160.22 699.67 158.955 699.806 157.637C699.941 156.319 699.75 154.988 699.25 153.761H710.139C714.653 153.762 718.981 155.554 722.172 158.743C725.363 161.932 727.156 166.258 727.157 170.768V170.768Z" fill="black"/>
<path d="M680.711 295.906H655.739V303.302H680.711V295.906Z" fill="#858585"/>
<path d="M710.901 238.325H625.549V241.495H710.901V238.325Z" fill="#858585"/>
<path d="M710.901 248.362H625.549V251.532H710.901V248.362Z" fill="#858585"/>
<path d="M710.901 258.4H625.549V261.569H710.901V258.4Z" fill="#858585"/>
<path d="M710.901 268.437H625.549V271.606H710.901V268.437Z" fill="#858585"/>
<path d="M710.901 278.474H625.549V281.643H710.901V278.474Z" fill="#858585"/>
<path d="M671.206 196.233H656.406V211.025H671.206V196.233Z" fill="#F2F2F2"/>
<path d="M662.072 199.932V217.893H680.044V199.932H662.072ZM679.264 217.114H662.851V200.711H679.264V217.114Z" fill="#858585"/>
<path opacity="0.1" d="M727.157 363.327V386.349C727.157 390.861 725.365 395.188 722.174 398.378C718.982 401.569 714.653 403.361 710.139 403.362H626.31C621.796 403.361 617.468 401.569 614.276 398.378C611.085 395.187 609.292 390.861 609.293 386.349V270.267L679.918 326.028L681.127 326.982L694.264 337.352L695.491 338.324L727.157 363.327Z" fill="black"/>
<path d="M660.973 396.376C675.614 396.376 687.483 384.514 687.483 369.882C687.483 355.25 675.614 343.389 660.973 343.389C646.333 343.389 634.464 355.25 634.464 369.882C634.464 384.514 646.333 396.376 660.973 396.376Z" fill="#F2F2F2"/>
<path d="M288.075 463.998C277.677 463.998 267.512 460.916 258.867 455.143C250.221 449.369 243.482 441.163 239.503 431.562C235.524 421.961 234.483 411.397 236.511 401.205C238.54 391.012 243.547 381.65 250.9 374.302C258.252 366.954 267.62 361.95 277.819 359.922C288.017 357.895 298.588 358.935 308.195 362.912C317.802 366.889 326.013 373.623 331.79 382.264C337.566 390.905 340.65 401.063 340.65 411.455C340.634 425.385 335.09 438.741 325.234 448.591C315.378 458.441 302.014 463.982 288.075 463.998ZM288.075 360.12C277.916 360.12 267.985 363.131 259.538 368.772C251.091 374.413 244.507 382.43 240.62 391.81C236.732 401.19 235.715 411.512 237.697 421.47C239.679 431.428 244.571 440.575 251.754 447.754C258.938 454.933 268.09 459.823 278.054 461.803C288.018 463.784 298.346 462.768 307.732 458.882C317.118 454.997 325.14 448.417 330.785 439.975C336.429 431.533 339.441 421.608 339.441 411.455C339.426 397.845 334.009 384.797 324.38 375.173C314.75 365.549 301.694 360.136 288.075 360.12V360.12Z" fill="#858585"/>
<path d="M668.787 390.317C662.213 390.317 655.787 388.369 650.322 384.719C644.856 381.069 640.596 375.882 638.08 369.812C635.565 363.743 634.906 357.064 636.189 350.62C637.471 344.177 640.637 338.258 645.285 333.613C649.933 328.968 655.856 325.804 662.303 324.522C668.75 323.241 675.433 323.899 681.506 326.413C687.579 328.927 692.77 333.184 696.422 338.647C700.074 344.109 702.024 350.531 702.024 357.101C702.014 365.907 698.509 374.35 692.278 380.577C686.047 386.805 677.599 390.307 668.787 390.317V390.317ZM668.787 325.092C662.452 325.092 656.26 326.969 650.993 330.486C645.726 334.004 641.621 339.003 639.197 344.852C636.773 350.7 636.138 357.136 637.374 363.345C638.61 369.554 641.66 375.258 646.14 379.734C650.619 384.211 656.326 387.259 662.539 388.494C668.751 389.729 675.191 389.096 681.044 386.673C686.896 384.25 691.898 380.148 695.417 374.884C698.937 369.62 700.815 363.431 700.815 357.101C700.805 348.614 697.428 340.478 691.424 334.478C685.419 328.477 677.278 325.102 668.787 325.092Z" fill="#858585"/>
</svg>
