<svg width="485" height="46" viewBox="0 0 485 46" fill="none" xmlns="http://www.w3.org/2000/svg">
<path d="M7.59999 0.652334C6.89999 1.85233 8.79999 4.65233 10.4 4.65233C11 4.65233 12.3 3.85233 13.4 2.85233C14.5 1.95233 15.2 1.65233 14.9 2.15233C14.5 2.75233 14.9 3.95233 15.6 4.95233C16.7 6.45233 17 6.45233 18.1 5.25233C19.1 3.95233 18.7 3.35233 16 1.75233C13.9 0.452334 12.3 0.0523341 11.6 0.652334C10.9 1.25233 10.1 1.25233 9.39999 0.552334C8.59999 -0.247666 8.09999 -0.147666 7.59999 0.652334Z" fill="black"/>
<path d="M3.70001 2.95233C2.10001 4.15233 2.10001 4.35233 4.00001 6.05233C6.10001 7.95233 6.10001 7.95233 6.10001 4.85233C6.10001 1.25233 6.10001 1.25233 3.70001 2.95233Z" fill="black"/>
<path d="M7.10001 6.25232C7.10001 8.45232 7.30001 8.75232 8.60001 7.65232C9.80001 6.65232 9.90001 6.05232 9.00001 5.05232C7.40001 3.05232 7.10001 3.25232 7.10001 6.25232Z" fill="black"/>
<path d="M0.299988 8.85234C0.599988 12.4523 0.999988 13.2523 2.99999 13.4523C4.49999 13.7523 5.09999 13.4523 4.59999 12.6523C4.19999 12.0523 3.19999 11.7523 2.19999 12.1523C0.899988 12.6523 0.799988 12.5523 1.89999 11.4523C2.89999 10.4523 3.89999 11.0523 7.39999 14.4523C10.8 17.9523 11.3 18.8523 10.1 19.6523C8.29999 20.7523 9.49999 22.1523 11.6 21.2523C12.8 20.8523 12.9 20.2523 12.2 18.8523C11.4 17.3523 11.8 16.3523 14.6 13.6523C16.7 11.6523 18.6 10.6523 19.5 10.9523C20.8 11.4523 21.1 10.8523 21.1 8.15234C21.1 6.25234 20.7 4.65234 20.3 4.65234C19.9 4.65234 17.7 6.45234 15.6 8.65234C13.5 10.8523 11.2 12.6523 10.6 12.6523C9.99999 12.6523 7.69999 10.8523 5.59999 8.65234C3.49999 6.45234 1.29999 4.65234 0.799988 4.65234C0.399988 4.65234 0.0999881 6.55234 0.299988 8.85234Z" fill="black"/>
<path d="M13.1 5.65233C13.1 6.15233 13.6 6.65233 14.1 6.65233C14.7 6.65233 15.1 6.15233 15.1 5.65233C15.1 5.05233 14.7 4.65233 14.1 4.65233C13.6 4.65233 13.1 5.05233 13.1 5.65233Z" fill="black"/>
<path d="M11.2 7.65233C11.1 9.45233 10.8 9.75233 10.2 8.75233C9.60001 7.85233 9.10001 7.75233 8.70001 8.55233C7.80001 9.95233 8.80001 11.6523 10.5 11.6523C11.2 11.6523 12.6 10.7523 13.6 9.65233C15.2 7.95233 15.2 7.65233 13.8 7.65233C13 7.65233 12 7.05233 11.8 6.35233C11.5 5.75233 11.2 6.25233 11.2 7.65233Z" fill="black"/>
<path d="M28.1 24.5523V39.6523H31.5C34.9 39.6523 35 39.5523 35.3 35.3523L35.6 31.1523L41.1 30.6523C50.2 29.7523 53.1 27.1523 53.1 19.7523C53.1 16.9523 52.4 14.9523 50.7 12.9523C48.4 10.2523 47.8 10.1523 38.2 9.85233L28.1 9.45233V24.5523ZM45.3 16.4523C46.7 17.8523 46.6 22.5523 45.3 23.8523C44.7 24.4523 42.2 25.0523 39.9 25.0523C35.6 25.1523 35.6 25.1523 35.3 21.2523C34.8 15.2523 35.5 14.3523 40.2 14.9523C42.5 15.2523 44.8 15.9523 45.3 16.4523Z" fill="black"/>
<path d="M71.1 24.6523V39.6523H74.6H78.1V33.6523V27.6523H84.6H91.1V33.6523V39.6523H94.6H98.1V24.6523V9.65233H94.6H91.1V15.6523V21.6523H84.6H78.1V15.6523V9.65233H74.6H71.1V24.6523Z" fill="black"/>
<path d="M117.1 24.6523V39.6523H120.5C123.9 39.6523 124 39.5523 124.3 35.3523C124.6 31.4523 124.8 31.1523 127.8 30.8523C130.8 30.5523 131.3 30.9523 133.3 35.0523C135.4 39.4523 135.7 39.6523 139.8 39.6523H144.2L141.1 35.2523C138 30.6523 137.4 28.6523 139.1 28.6523C140.5 28.6523 143.1 23.1523 143.1 20.1523C143.1 16.3523 140.7 12.2523 137.6 10.8523C136.2 10.1523 131 9.65233 126.1 9.65233H117.1V24.6523ZM133.9 16.2523C138.9 19.7523 134.8 26.1523 127.9 25.4523C124.9 25.1523 124.6 24.8523 124.3 21.2523C124.1 19.1523 124.2 16.8523 124.5 16.0523C125.2 14.1523 131.1 14.2523 133.9 16.2523Z" fill="black"/>
<path d="M169.7 12.8523C169 14.6523 166.7 19.9523 164.6 24.6523C162.6 29.3523 160.3 34.6523 159.6 36.3523L158.2 39.6523H161.9C165.2 39.6523 165.8 39.2523 166.8 36.6523C167.9 33.7523 168.1 33.6523 174.8 33.6523C181.5 33.6523 181.7 33.7523 182.8 36.6523C183.8 39.2523 184.4 39.6523 187.6 39.6523C190.7 39.6523 191.2 39.3523 190.6 37.8523C190.3 36.9523 187.5 30.1523 184.4 22.8523L178.8 9.65233H175C171.6 9.65233 171 10.0523 169.7 12.8523ZM179 27.3523C179.1 28.2523 177.5 28.6523 174.5 28.6523C170.5 28.6523 170 28.4523 170.6 26.8523C171 25.9523 172 23.1523 172.9 20.6523L174.5 16.1523L176.7 21.1523C178 23.8523 179 26.7523 179 27.3523Z" fill="black"/>
<path d="M210 12.5523C204.7 17.9523 206.8 23.4523 215.4 26.1523C221.5 28.1523 223.6 29.8523 222.8 32.0523C221.9 34.2523 216.4 34.0523 211.8 31.7523C208.2 29.9523 208 29.9523 207.1 31.6523C205.4 34.7523 205.9 35.6523 210.4 37.6523C222.1 42.9523 234.2 36.4523 229.8 27.1523C228.5 24.5523 227.2 23.5523 222.9 22.1523C216.7 20.1523 214.6 18.4523 215.4 16.2523C216.2 14.2523 219.1 14.2523 223.9 16.1523C227.3 17.6523 227.7 17.6523 228.8 16.0523C229.5 15.0523 230.1 13.7523 230.1 13.1523C230.1 11.1523 225.3 9.65234 219 9.65234C213.6 9.65234 212.6 9.95234 210 12.5523Z" fill="black"/>
<path d="M248.1 24.6523V39.6523H260.1H272.1V36.6523V33.6523H263.5H255L255.3 30.3523L255.6 27.1523L262.9 26.8523C269.8 26.5523 270.1 26.4523 270.1 24.1523C270.1 21.7523 269.9 21.6523 262.5 21.6523H255L255.3 18.3523L255.6 15.1523L263.4 14.8523C270.8 14.5523 271.1 14.4523 271.1 12.1523V9.65233H259.6H248.1V24.6523Z" fill="black"/>
<path d="M290.1 24.6523V39.6523H293.6H297.1V24.6523V9.65233H293.6H290.1V24.6523Z" fill="black"/>
<path d="M314.1 12.0523C314.1 14.2523 314.6 14.5523 318.4 14.8523L322.6 15.1523L322.9 27.3523L323.2 39.6523H326.6H330L330.3 27.3523L330.6 15.1523L334.9 14.8523C338.6 14.5523 339.1 14.2523 339.1 12.0523V9.65233H326.6H314.1V12.0523Z" fill="black"/>
<path d="M16.6 12.6523C16.2 13.2523 17.1 13.6523 18.6 13.6523C20.1 13.6523 21 13.2523 20.6 12.6523C20.3 12.0523 19.4 11.6523 18.6 11.6523C17.8 11.6523 16.9 12.0523 16.6 12.6523Z" fill="black"/>
<path d="M352.2 12.4523C352.1 13.1523 351.7 13.5523 351.2 13.1523C350.7 12.8523 349.9 13.5523 349.6 14.7523C349.1 16.2523 349.7 17.6523 351.8 19.8523L354.6 22.7523L357.4 19.5523C361.2 14.9523 361 12.4523 357.1 16.1523L354.1 19.0523L351.8 16.6523C350.6 15.3523 350.4 14.8523 351.4 15.6523C353.6 17.2523 354 16.8523 353 13.6523C352.6 12.2523 352.3 11.7523 352.2 12.4523Z" fill="black"/>
<path d="M355.3 14.3524C355.1 16.8524 355.2 16.9524 356.7 15.4524C357.6 14.5524 358 13.3524 357.7 12.7524C356.5 10.8524 355.5 11.5524 355.3 14.3524Z" fill="black"/>
<path d="M0.500001 15.8523C0.100001 16.5523 0.200001 16.8523 0.600001 16.3523C1.1 15.9523 2.5 16.6523 3.8 17.8523L6.1 19.9523V17.3523C6.1 15.1523 5.6 14.6523 3.7 14.6523C2.3 14.6523 0.900001 15.2523 0.500001 15.8523Z" fill="black"/>
<path d="M13.6 15.6523C13.3 16.1523 13.7 16.6523 14.5 16.6523C15.4 16.6523 16.1 17.1523 16.1 17.8523C16.1 18.4523 16.8 18.2523 17.9 17.3523C18.9 16.3523 20.1 15.9523 20.6 16.3523C21 16.8523 21.1 16.5523 20.7 15.8523C19.8 14.4523 14.5 14.2523 13.6 15.6523Z" fill="black"/>
<path d="M7.10001 18.2523C7.10001 20.4523 7.30001 20.7523 8.60001 19.6523C9.80001 18.6523 9.90001 18.0523 9.00001 17.0523C7.40001 15.0523 7.10001 15.2523 7.10001 18.2523Z" fill="black"/>
<path d="M13.1 18.6523C13.1 19.1523 13.6 19.6523 14.1 19.6523C14.7 19.6523 15.1 19.1523 15.1 18.6523C15.1 18.0523 14.7 17.6523 14.1 17.6523C13.6 17.6523 13.1 18.0523 13.1 18.6523Z" fill="black"/>
<path d="M350.1 20.4523C350.1 21.6523 352 23.0523 352.7 22.3523C352.9 22.1523 352.5 21.3523 351.6 20.6523C350.7 19.8523 350.1 19.8523 350.1 20.4523Z" fill="black"/>
<path d="M357.6 20.6523C357.3 21.1523 357.4 21.6523 358 21.6523C358.5 21.6523 359.3 21.1523 359.6 20.6523C359.9 20.0523 359.8 19.6523 359.2 19.6523C358.7 19.6523 357.9 20.0523 357.6 20.6523Z" fill="black"/>
<path d="M7.79999 23.7523C5.99999 24.7523 5.99999 24.9523 7.69999 26.7523C9.89999 29.1523 11.3 29.1523 13.5 26.7523C15.2 24.8523 15.2 24.7523 13.2 23.6523C12 23.0523 11.2 22.9523 11.3 23.3523C11.5 23.7523 11.2 24.2523 10.6 24.3523C10.1 24.5523 9.69999 24.1523 9.89999 23.6523C10.2 22.4523 10.1 22.4523 7.79999 23.7523Z" fill="black"/>
<path d="M387.3 29.8523L382.1 35.1523L377.1 30.1523C373 26.1523 372.1 25.5523 372.1 27.2523C372.1 28.5523 374.1 31.0523 377.1 33.5523L382.2 37.8523L387.7 33.1523L393.2 28.3523L398 33.0523C400.5 35.5523 403.1 37.6523 403.6 37.6523C404.1 37.6523 406.7 35.5523 409.3 32.9523L414.1 28.2523L419.1 33.1523C423.2 37.2523 424.1 37.7523 424.1 36.0523C424.1 34.7523 422.1 32.2523 419 29.7523C413.4 24.9523 414.3 24.7523 406.3 32.0523L403.1 35.0523L397.8 29.8523L392.6 24.6523L387.3 29.8523Z" fill="black"/>
<path d="M447.3 29.8523L442.1 35.1523L437.1 30.1523C433.1 26.1523 432.1 25.6523 432.1 27.2523C432.1 28.3523 433.6 30.6523 435.4 32.2523C442 38.3523 441.5 38.3523 447.2 33.2523L452.3 28.6523L456.1 31.6523C458.1 33.2523 460.4 35.2523 461.1 36.1523C462.9 38.3523 463.3 38.1523 469.1 33.0523L474.2 28.3523L479.2 33.2523C482.6 36.5523 484.1 37.5523 484.1 36.3523C484.1 34.8523 476.2 26.6523 473.9 25.7523C473.3 25.5523 470.7 27.5523 468 30.2523L463.1 35.0523L457.8 29.8523L452.6 24.6523L447.3 29.8523Z" fill="black"/>
<path d="M355.1 27.2523C355.1 28.0523 355.6 28.4523 356.1 28.1523C356.7 27.7523 356.9 27.0523 356.6 26.5523C355.7 25.1523 355.1 25.4523 355.1 27.2523Z" fill="black"/>
<path d="M2.10001 27.5523C2.10001 28.0523 2.70001 28.8523 3.40001 29.4523C4.40001 30.2523 5.00001 30.0523 5.90001 28.5523C7.00001 26.8523 6.80001 26.6523 4.60001 26.6523C3.20001 26.6523 2.10001 27.0523 2.10001 27.5523Z" fill="black"/>
<path d="M15.1 29.3523C15.1 31.8523 15.1 31.9523 17.1 30.1523C18.2 29.1523 19.1 27.9523 19.1 27.4523C19.1 27.0523 18.2 26.6523 17.1 26.6523C15.6 26.6523 15.1 27.3523 15.1 29.3523Z" fill="black"/>
<path d="M0.3 31.6523C0.6 35.5523 0.9 36.1523 3 36.4523C4.5 36.7523 5.1 36.4523 4.6 35.6523C4.2 35.0523 3.2 34.7523 2.2 35.1523C0.9 35.6523 0.8 35.5523 1.9 34.5523C2.9 33.4523 3.9 34.0523 7.1 37.1523L11.1 41.0523L15 37.2523C17.8 34.5523 19.1 33.8523 19.6 34.7523C20.1 35.4523 20 35.7523 19.3 35.2523C18.7 34.9523 17.9 35.1523 17.6 35.7523C17.1 36.4523 17.6 36.7523 18.7 36.4523C20.2 36.2523 20.7 35.0523 20.9 31.6523L21.2 27.1523L15.9 32.3523L10.6 37.6523L5.3 32.3523L0 27.1523L0.3 31.6523Z" fill="black"/>
<path d="M12.4 28.7523C11.6 29.5523 11.5 30.4523 12.1 31.1523C12.8 31.9523 12.6 32.3523 11.6 32.3523C10.8 32.3523 10.1 31.6523 10 30.7523C10 29.7523 9.8 29.5523 9.4 30.3523C9.2 31.0523 8.2 31.6523 7.4 31.6523C6 31.6523 6 31.9523 7.6 33.6523C9.9 36.2523 11.7 36.1523 13.1 33.5523C14.6 30.7523 14.1 27.0523 12.4 28.7523Z" fill="black"/>
<path d="M348.7 28.4523C348.4 28.9523 349.5 30.6523 351.1 32.1523L354.1 35.0523L357.1 32.1523C360.4 28.9523 359.8 26.5523 356.2 28.8523C354.5 29.8523 353.7 29.8523 352.1 28.8523C349.8 27.4523 349.4 27.3523 348.7 28.4523Z" fill="black"/>
<path d="M6.10001 29.6523C6.10001 30.1523 6.60001 30.6523 7.10001 30.6523C7.70001 30.6523 8.10001 30.1523 8.10001 29.6523C8.10001 29.0523 7.70001 28.6523 7.10001 28.6523C6.60001 28.6523 6.10001 29.0523 6.10001 29.6523Z" fill="black"/>
<path d="M348.2 33.2523C348.2 34.3523 348.5 34.6523 348.8 33.8523C349.1 33.1523 349 32.2523 348.7 31.9523C348.4 31.5523 348.1 32.1523 348.2 33.2523Z" fill="black"/>
<path d="M357.7 32.5523C357.3 33.0523 357.7 33.7523 358.3 33.9523C359 34.2523 358.6 34.5523 357.4 34.5523C356.2 34.6523 354.9 35.1523 354.6 35.6523C354.2 36.2523 353.2 35.7523 352.1 34.4523C350.4 32.4523 350.2 32.3523 350.1 33.9523C350.1 36.2523 354.9 38.5523 356 36.7523C356.5 36.0523 357.1 35.5523 357.5 35.5523C359.5 35.8523 360.1 35.4523 360.1 33.6523C360.1 31.5523 358.7 30.9523 357.7 32.5523Z" fill="black"/>
<path d="M0.599997 38.6523C0.299997 39.1523 1.4 40.2523 3.1 41.1523C6.1 42.6523 6.1 42.6523 6.1 40.1523C6.1 38.1523 5.6 37.6523 3.7 37.6523C2.3 37.6523 0.999997 38.0523 0.599997 38.6523Z" fill="black"/>
<path d="M14.7 38.5523C14.4 39.0523 14.8 39.9523 15.7 40.7523C17 41.7523 17.6 41.6523 19.4 39.8523L21.5 37.6523H18.4C16.6 37.6523 15 38.0523 14.7 38.5523Z" fill="black"/>
<path d="M7.10001 40.8523C7.10001 42.4523 7.50001 43.6523 8.00001 43.6523C9.80001 43.6523 10 41.9523 8.60001 40.0523C7.20001 38.2523 7.20001 38.2523 7.10001 40.8523Z" fill="black"/>
<path d="M13.1 41.6523C13.1 42.1523 13.6 42.6523 14.1 42.6523C14.7 42.6523 15.1 42.1523 15.1 41.6523C15.1 41.0523 14.7 40.6523 14.1 40.6523C13.6 40.6523 13.1 41.0523 13.1 41.6523Z" fill="black"/>
<path d="M10.2 43.0523C8.80001 44.7523 10.1 45.8523 12.1 44.6523C13.2 43.9523 13.3 43.4523 12.5 42.6523C11.7 41.8523 11.1 41.9523 10.2 43.0523Z" fill="black"/>
</svg>
