<?xml version="1.0" standalone="no"?>
<!DOCTYPE svg PUBLIC "-//W3C//DTD SVG 20010904//EN"
 "http://www.w3.org/TR/2001/REC-SVG-20010904/DTD/svg10.dtd">
<svg version="1.0" xmlns="http://www.w3.org/2000/svg"
 width="500.000000pt" height="500.000000pt" viewBox="0 0 500.000000 500.000000"
 preserveAspectRatio="xMidYMid meet">

<g transform="translate(0.000000,500.000000) scale(0.100000,-0.100000)"
fill="#000000" stroke="none">
<path d="M175 2780 c-7 -12 12 -40 28 -40 6 0 19 8 30 18 11 9 18 12 15 7 -4
-6 0 -18 7 -28 11 -15 14 -15 25 -3 10 13 6 19 -21 35 -21 13 -37 17 -44 11
-7 -6 -15 -6 -22 1 -8 8 -13 7 -18 -1z"/>
<path d="M136 2757 c-16 -12 -16 -14 3 -31 21 -19 21 -19 21 12 0 36 0 36 -24
19z"/>
<path d="M170 2724 c0 -22 2 -25 15 -14 12 10 13 16 4 26 -16 20 -19 18 -19
-12z"/>
<path d="M102 2698 c3 -36 7 -44 27 -46 15 -3 21 0 16 8 -4 6 -14 9 -24 5 -13
-5 -14 -4 -3 7 10 10 20 4 55 -30 34 -35 39 -44 27 -52 -18 -11 -6 -25 15 -16
12 4 13 10 6 24 -8 15 -4 25 24 52 21 20 40 30 49 27 13 -5 16 1 16 28 0 19
-4 35 -8 35 -4 0 -26 -18 -47 -40 -21 -22 -44 -40 -50 -40 -6 0 -29 18 -50 40
-21 22 -43 40 -48 40 -4 0 -7 -19 -5 -42z"/>
<path d="M230 2730 c0 -5 5 -10 10 -10 6 0 10 5 10 10 0 6 -4 10 -10 10 -5 0
-10 -4 -10 -10z"/>
<path d="M211 2710 c-1 -18 -4 -21 -10 -11 -6 9 -11 10 -15 2 -9 -14 1 -31 18
-31 7 0 21 9 31 20 16 17 16 20 2 20 -8 0 -18 6 -20 13 -3 6 -6 1 -6 -13z"/>
<path d="M380 2541 l0 -151 34 0 c34 0 35 1 38 43 l3 42 55 5 c91 9 120 35
120 109 0 28 -7 48 -24 68 -23 27 -29 28 -125 31 l-101 4 0 -151z m172 81 c14
-14 13 -61 0 -74 -6 -6 -31 -12 -54 -12 -43 -1 -43 -1 -46 38 -5 60 2 69 49
63 23 -3 46 -10 51 -15z"/>
<path d="M810 2540 l0 -150 35 0 35 0 0 60 0 60 65 0 65 0 0 -60 0 -60 35 0
35 0 0 150 0 150 -35 0 -35 0 0 -60 0 -60 -65 0 -65 0 0 60 0 60 -35 0 -35 0
0 -150z"/>
<path d="M1270 2540 l0 -150 34 0 c34 0 35 1 38 43 3 39 5 42 35 45 30 3 35
-1 55 -42 21 -44 24 -46 65 -46 l44 0 -31 44 c-31 46 -37 66 -20 66 14 0 40
55 40 85 0 38 -24 79 -55 93 -14 7 -66 12 -115 12 l-90 0 0 -150z m168 84 c50
-35 9 -99 -60 -92 -30 3 -33 6 -36 42 -2 21 -1 44 2 52 7 19 66 18 94 -2z"/>
<path d="M1796 2658 c-7 -18 -30 -71 -51 -118 -20 -47 -43 -100 -50 -117 l-14
-33 37 0 c33 0 39 4 49 30 11 29 13 30 80 30 67 0 69 -1 80 -30 10 -26 16 -30
48 -30 31 0 36 3 30 18 -3 9 -31 77 -62 150 l-56 132 -38 0 c-34 0 -40 -4 -53
-32z m93 -145 c1 -9 -15 -13 -45 -13 -40 0 -45 2 -39 18 4 9 14 37 23 62 l16
45 22 -50 c13 -27 23 -56 23 -62z"/>
<path d="M2199 2661 c-53 -54 -32 -109 54 -136 61 -20 82 -37 74 -59 -9 -22
-64 -20 -110 3 -36 18 -38 18 -47 1 -17 -31 -12 -40 33 -60 117 -53 238 12
194 105 -13 26 -26 36 -69 50 -62 20 -83 37 -75 59 8 20 37 20 85 1 34 -15 38
-15 49 1 7 10 13 23 13 29 0 20 -48 35 -111 35 -54 0 -64 -3 -90 -29z"/>
<path d="M2580 2540 l0 -150 120 0 120 0 0 30 0 30 -86 0 -85 0 3 33 3 32 73
3 c69 3 72 4 72 27 0 24 -2 25 -76 25 l-75 0 3 33 3 32 78 3 c74 3 77 4 77 27
l0 25 -115 0 -115 0 0 -150z"/>
<path d="M3000 2540 l0 -150 35 0 35 0 0 150 0 150 -35 0 -35 0 0 -150z"/>
<path d="M3240 2666 c0 -22 5 -25 43 -28 l42 -3 3 -122 3 -123 34 0 34 0 3
123 3 122 43 3 c37 3 42 6 42 28 l0 24 -125 0 -125 0 0 -24z"/>
<path d="M265 2660 c-4 -6 5 -10 20 -10 15 0 24 4 20 10 -3 6 -12 10 -20 10
-8 0 -17 -4 -20 -10z"/>
<path d="M3621 2662 c-1 -7 -5 -11 -10 -7 -5 3 -13 -4 -16 -16 -5 -15 1 -29
22 -51 l28 -29 28 32 c38 46 36 71 -3 34 l-30 -29 -23 24 c-12 13 -14 18 -4
10 22 -16 26 -12 16 20 -4 14 -7 19 -8 12z"/>
<path d="M3652 2643 c-2 -25 -1 -26 14 -11 9 9 13 21 10 27 -12 19 -22 12 -24
-16z"/>
<path d="M104 2628 c-4 -7 -3 -10 1 -5 5 4 19 -3 32 -15 l23 -21 0 26 c0 22
-5 27 -24 27 -14 0 -28 -6 -32 -12z"/>
<path d="M235 2630 c-3 -5 1 -10 9 -10 9 0 16 -5 16 -12 0 -6 7 -4 18 5 10 10
22 14 27 10 4 -5 5 -2 1 5 -9 14 -62 16 -71 2z"/>
<path d="M170 2604 c0 -22 2 -25 15 -14 12 10 13 16 4 26 -16 20 -19 18 -19
-12z"/>
<path d="M230 2600 c0 -5 5 -10 10 -10 6 0 10 5 10 10 0 6 -4 10 -10 10 -5 0
-10 -4 -10 -10z"/>
<path d="M3600 2582 c0 -12 19 -26 26 -19 2 2 -2 10 -11 17 -9 8 -15 8 -15 2z"/>
<path d="M3675 2580 c-3 -5 -2 -10 4 -10 5 0 13 5 16 10 3 6 2 10 -4 10 -5 0
-13 -4 -16 -10z"/>
<path d="M177 2549 c-18 -10 -18 -12 -1 -30 22 -24 36 -24 58 0 17 19 17 20
-3 31 -12 6 -20 7 -19 3 2 -4 -1 -9 -7 -10 -5 -2 -9 2 -7 7 3 12 2 12 -21 -1z"/>
<path d="M3972 2488 l-52 -53 -50 50 c-41 40 -50 46 -50 29 0 -13 20 -38 50
-63 l51 -43 55 47 55 48 48 -47 c25 -25 51 -46 56 -46 5 0 31 21 57 47 l48 47
50 -49 c41 -41 50 -46 50 -29 0 13 -20 38 -51 63 -56 48 -47 50 -127 -23 l-32
-30 -53 52 -52 52 -53 -52z"/>
<path d="M4572 2488 l-52 -53 -50 50 c-40 40 -50 45 -50 29 0 -11 15 -34 33
-50 66 -61 61 -61 118 -10 l51 46 38 -30 c20 -16 43 -36 50 -45 18 -22 22 -20
80 31 l51 47 50 -49 c34 -33 49 -43 49 -31 0 15 -79 97 -102 106 -6 2 -32 -18
-59 -45 l-49 -48 -53 52 -52 52 -53 -52z"/>
<path d="M3650 2514 c0 -8 5 -12 10 -9 6 4 8 11 5 16 -9 14 -15 11 -15 -7z"/>
<path d="M120 2511 c0 -5 6 -13 13 -19 10 -8 16 -6 25 9 11 17 9 19 -13 19
-14 0 -25 -4 -25 -9z"/>
<path d="M250 2493 c0 -25 0 -26 20 -8 11 10 20 22 20 27 0 4 -9 8 -20 8 -15
0 -20 -7 -20 -27z"/>
<path d="M102 2470 c3 -39 6 -45 27 -48 15 -3 21 0 16 8 -4 6 -14 9 -24 5 -13
-5 -14 -4 -3 6 10 11 20 5 52 -26 l40 -39 39 38 c28 27 41 34 46 25 5 -7 4
-10 -3 -5 -6 3 -14 1 -17 -5 -5 -7 0 -10 11 -7 15 2 20 14 22 48 l3 45 -53
-52 -53 -53 -53 53 -53 52 3 -45z"/>
<path d="M223 2499 c-8 -8 -9 -17 -3 -24 7 -8 5 -12 -5 -12 -8 0 -15 7 -16 16
0 10 -2 12 -6 4 -2 -7 -12 -13 -20 -13 -14 0 -14 -3 2 -20 23 -26 41 -25 55 1
15 28 10 65 -7 48z"/>
<path d="M3586 2502 c-3 -5 8 -22 24 -37 l30 -29 30 29 c33 32 27 56 -9 33
-17 -10 -25 -10 -41 0 -23 14 -27 15 -34 4z"/>
<path d="M160 2490 c0 -5 5 -10 10 -10 6 0 10 5 10 10 0 6 -4 10 -10 10 -5 0
-10 -4 -10 -10z"/>
<path d="M3581 2454 c0 -11 3 -14 6 -6 3 7 2 16 -1 19 -3 4 -6 -2 -5 -13z"/>
<path d="M3676 2461 c-4 -5 0 -12 6 -14 7 -3 3 -6 -9 -6 -12 -1 -25 -6 -28
-11 -4 -6 -14 -1 -25 12 -17 20 -19 21 -20 5 0 -23 48 -46 59 -28 5 7 11 12
15 12 20 -3 26 1 26 19 0 21 -14 27 -24 11z"/>
<path d="M105 2400 c-3 -5 8 -16 25 -25 30 -15 30 -15 30 10 0 20 -5 25 -24
25 -14 0 -27 -4 -31 -10z"/>
<path d="M246 2401 c-3 -5 1 -14 10 -22 13 -10 19 -9 37 9 l21 22 -31 0 c-18
0 -34 -4 -37 -9z"/>
<path d="M170 2378 c0 -16 4 -28 9 -28 18 0 20 17 6 36 -14 18 -14 18 -15 -8z"/>
<path d="M230 2370 c0 -5 5 -10 10 -10 6 0 10 5 10 10 0 6 -4 10 -10 10 -5 0
-10 -4 -10 -10z"/>
<path d="M201 2356 c-14 -17 -1 -28 19 -16 11 7 12 12 4 20 -8 8 -14 7 -23 -4z"/>
</g>
</svg>
