<svg width="317" height="36" viewBox="0 0 317 36" fill="none" xmlns="http://www.w3.org/2000/svg">
<path d="M241.092 9.59999L235.892 14.8L233.292 12.4C231.892 11.1 230.492 10.3 230.192 10.6C229.392 11.4 231.192 14.5 233.692 16.8C235.892 18.8 235.892 18.8 241.292 13.4L246.792 7.99999L252.292 13.4L257.792 18.8L263.292 13.4L268.792 7.99999L274.292 13.4L279.792 18.8L285.292 13.4L290.792 7.99999L296.292 13.4C300.692 17.7 301.792 18.4 301.792 16.8C301.792 15.7 299.292 12.4 296.292 9.39999L290.792 3.99999L285.292 9.39999L279.792 14.8L274.292 9.39999L268.792 3.99999L263.292 9.39999L257.792 14.8L252.492 9.59999C249.592 6.69999 246.992 4.39999 246.792 4.39999C246.492 4.39999 243.892 6.69999 241.092 9.59999Z" fill="black"/>
<path d="M0.5 11V22H3.5C6.1 22 6.5 21.7 6.5 19.1C6.5 16.2 8.3 15 13.1 15C14.2 15 15.9 14.2 16.8 13.2C18.5 11.3 19.1 5.4 17.7 3.3C16.5 1.3 11.7 -3.27826e-07 5.9 -3.27826e-07H0.5V11ZM13.5 5.9C14.8 8.4 14.8 8.6 12.9 10.4C12.1 11.3 10.3 12 8.9 12C6.8 12 6.5 11.6 6.5 8C6.5 4.2 6.7 4 9.5 4C11.4 4 12.8 4.7 13.5 5.9Z" fill="black"/>
<path d="M31.5 11V22H34C36.3 22 36.5 21.6 36.5 17.5V13H41.5H46.5V17.5C46.5 21.6 46.7 22 49 22H51.5V11V-3.27826e-07H49C46.7 -3.27826e-07 46.5 0.4 46.5 4.5V9H41.5H36.5V4.5C36.5 0.4 36.3 -3.27826e-07 34 -3.27826e-07H31.5V11Z" fill="black"/>
<path d="M65.5 11V22H68C70.1 22 70.5 21.5 70.5 19C70.5 16.5 70.9 16 72.9 16C74.6 16 76 17 77.2 19C78.4 21.2 79.7 22 81.7 22H84.4L82.3 18.5C80.4 15.2 80.4 14.8 81.9 13.1C83.5 11.3 84 5.4 82.7 3.3C81.5 1.3 76.7 -3.27826e-07 70.9 -3.27826e-07H65.5V11ZM78.5 5.9C79.8 8.4 79.8 8.6 77.9 10.4C77.1 11.3 75 12 73.4 12C70.7 12 70.5 11.8 70.5 8C70.5 4.1 70.6 4 74 4C76.4 4 77.7 4.6 78.5 5.9Z" fill="black"/>
<path d="M103.6 2.2C103.1 3.5 101.1 8.3 99.1 12.8C97.1 17.4 95.5 21.4 95.5 21.6C95.5 21.8 96.6 22 97.9 22C99.5 22 100.6 21.3 101 20C101.5 18.3 102.5 18 107 18C111.5 18 112.5 18.3 113 20C113.4 21.3 114.5 22 116.1 22C117.4 22 118.5 21.7 118.5 21.3C118.5 20.9 116.6 15.9 114.3 10.3C110.3 0.8 109.8 -3.27826e-07 107.2 -3.27826e-07C105.3 -3.27826e-07 104.2 0.7 103.6 2.2ZM109 9.6C110.9 14.3 111.1 14 107 14C104.7 14 103.7 13.6 104 12.7C105.8 7.7 106.5 6 107 6C107.2 6 108.2 7.6 109 9.6Z" fill="black"/>
<path d="M133.7 1.2C131.1 2.5 129.8 6.6 131.2 8.9C131.8 9.8 134 11.2 136.1 12C142.1 14.3 142.8 14.9 141.4 16.6C139.9 18.4 137.7 18.4 134.1 16.5C131.2 15 129.6 15.6 129.5 18.3C129.5 19.5 136.1 22 139.3 22C143.1 22 147.5 18.5 147.5 15.5C147.5 12.9 143.3 9 140.6 9C139.6 9 138 8.4 136.9 7.6C135.4 6.4 135.2 5.9 136.3 4.9C137.2 3.9 138.4 3.8 141.5 4.7C145 5.6 145.7 5.5 146.5 4C148.3 0.700001 139 -1.3 133.7 1.2Z" fill="black"/>
<path d="M160.5 11V22H169C176.8 22 177.5 21.8 177.5 20C177.5 18.2 176.8 18 171.5 18C165.8 18 165.5 17.9 165.5 15.5C165.5 13.2 165.8 13 170.5 13C174.8 13 175.5 12.7 175.5 11C175.5 9.3 174.8 9 170.5 9C165.8 9 165.5 8.8 165.5 6.5C165.5 4.1 165.8 4 171 4C175.8 4 176.5 3.8 176.5 2C176.5 0.2 175.8 -3.27826e-07 168.5 -3.27826e-07H160.5V11Z" fill="black"/>
<path d="M190.5 11V22H193H195.5V11V-3.27826e-07H193H190.5V11Z" fill="black"/>
<path d="M207.5 2C207.5 3.6 208.2 4 211 4H214.5V13C214.5 21.9 214.5 22 217 22C219.5 22 219.5 21.9 219.5 13V4H223C225.8 4 226.5 3.6 226.5 2C226.5 0.0999997 225.8 -3.27826e-07 217 -3.27826e-07C208.2 -3.27826e-07 207.5 0.0999997 207.5 2Z" fill="black"/>
<path d="M201 23.5C201 24.3 203.5 27.3 206.5 30.3L212 35.7L217.5 30.3L223 24.9L228.5 30.3L234 35.7L239.5 30.3L245 24.9L250.5 30.3L256 35.7L261.5 30.3L267 24.9L270 27.8C272 29.8 273 30.2 273 29.2C273 28.3 271.7 26.4 270.1 24.8L267.1 22L261.9 26.7C259.1 29.2 256.5 31.3 256.1 31.3C255.8 31.3 253.1 29.2 250.2 26.7L244.9 22L241.2 25.5C234 32.1 234.6 32.1 228.4 26.8L222.9 22L219.2 25.5C212 32.1 212.6 32.1 206.5 26.8C203.5 24.3 201 22.8 201 23.5Z" fill="black"/>
<path d="M245 23.5C245 24.3 247.5 27.3 250.5 30.3L256 35.7L261.5 30.3L267 24.9L272.5 30.3L278 35.7L283.5 30.3L289 24.9L294.5 30.3L300 35.7L305.5 30.3L311 24.9L314 27.8C316 29.8 317 30.2 317 29.2C317 28.3 315.7 26.4 314.1 24.8L311.1 22L305.9 26.7C303.1 29.2 300.5 31.3 300.1 31.3C299.8 31.3 297.1 29.2 294.2 26.7L288.9 22L285.2 25.5C278 32.1 278.6 32.1 272.4 26.8L266.9 22L263.2 25.5C256 32.1 256.6 32.1 250.5 26.8C247.5 24.3 245 22.8 245 23.5Z" fill="black"/>
</svg>
