<svg width="152" height="159" viewBox="0 0 152 159" fill="none" xmlns="http://www.w3.org/2000/svg">
<rect width="152" height="157" fill="#A0A0F8"/>
<path d="M84.2541 39.5805C84.8876 42.2945 85.4038 45.1481 85.8025 48.1414C86.1568 51.1265 86.3754 54.2251 86.4585 57.4369C94.301 60.2195 100.7 65.189 105.654 72.3452C108.86 76.9757 111.005 81.8734 112.09 87.0383C113.131 92.195 113.154 97.3164 112.161 102.402C111.149 107.462 109.178 112.232 106.247 116.713C103.317 121.194 99.4837 125.074 94.7479 128.353C90.0122 131.631 85.0092 133.85 79.7391 135.008C74.4427 136.184 69.2171 136.337 64.0624 135.469C58.8813 134.619 54.0472 132.809 49.5603 130.039C45.0288 127.26 41.1783 123.582 38.0088 119.004C34.8394 114.426 32.7476 109.55 31.7335 104.375C30.7194 99.1996 30.7355 94.0509 31.7817 88.9285C32.7834 83.798 34.7535 78.97 37.692 74.4446C40.6042 69.9374 44.4151 66.0535 49.1245 62.793C53.7024 59.6235 58.6487 57.4639 63.9633 56.3142C69.2334 55.1565 74.465 55.0956 79.6583 56.1317C79.3951 53.2781 79.05 50.559 78.6229 47.9746C78.1958 45.3901 77.6604 42.9585 77.0168 40.6796L84.2541 39.5805ZM99.8802 76.4012C98.1133 73.8491 96.0641 71.6482 93.7325 69.7985C91.401 67.9487 88.859 66.4977 86.1065 65.4453C86.0216 68.6957 85.7677 71.9268 85.3448 75.1386C84.8956 78.3687 84.3027 81.5037 83.566 84.5435L78.5509 84.0458C79.8278 77.4014 80.4237 70.6448 80.3385 63.7758C75.8374 62.7276 71.2787 62.6922 66.6623 63.6699C62.0277 64.6212 57.6845 66.4995 53.6328 69.3046C49.6864 72.0369 46.4806 75.2489 44.0157 78.9404C41.5062 82.6239 39.8174 86.5371 38.9492 90.6799C38.0366 94.8147 37.981 98.9788 38.7826 103.172C39.5659 107.339 41.2418 111.278 43.8101 114.987C46.3967 118.723 49.5115 121.704 53.1545 123.931C56.7975 126.157 60.7238 127.583 64.9334 128.211C69.1431 128.838 73.4225 128.639 77.7718 127.612C82.121 126.586 86.2952 124.689 90.2943 121.92C94.267 119.169 97.495 115.962 99.9782 112.296C102.461 108.631 104.133 104.749 104.993 100.651C105.853 96.5526 105.878 92.429 105.069 88.2801C104.214 84.1231 102.485 80.1635 99.8802 76.4012Z" fill="#46466D"/>
<path d="M48.4727 36.1265C48.3769 32.4477 49.5339 29.5526 51.9437 27.4411C54.3864 25.3608 57.8629 24.2619 62.3734 24.1444L93.5628 23.3319L93.4328 18.3416L98.711 18.2041L98.841 23.1944L117.219 22.7157L117.401 29.7213L99.0235 30.2L99.3423 42.4359L94.0641 42.5734L93.7453 30.3375L62.9398 31.14C60.2207 31.2109 58.1551 31.7928 56.7431 32.886C55.3311 33.9791 54.6505 35.5014 54.7014 37.4527C54.7505 39.3401 55.3217 40.9898 56.4148 42.4018L50.895 44.3222C50.1949 43.252 49.6337 41.9862 49.2115 40.5247C48.7573 39.064 48.511 37.598 48.4727 36.1265Z" fill="#46466D"/>
</svg>
