<svg width="277" height="85" viewBox="0 0 277 85" fill="none" xmlns="http://www.w3.org/2000/svg">
<g filter="url(#filter0_d_2_3)">
<path d="M107.092 5.59999L101.892 10.8L99.2922 8.39999C97.8922 7.09999 96.4922 6.29999 96.1922 6.59999C95.3922 7.39999 97.1922 10.5 99.6922 12.8C101.892 14.8 101.892 14.8 107.292 9.39999L112.792 3.99999L118.292 9.39999L123.792 14.8L129.292 9.39999L134.792 3.99999L140.292 9.39999L145.792 14.8L151.292 9.39999L156.792 3.99999L162.292 9.39999C166.692 13.7 167.792 14.4 167.792 12.8C167.792 11.7 165.292 8.39999 162.292 5.39999L156.792 -1.24276e-05L151.292 5.39999L145.792 10.8L140.292 5.39999L134.792 -1.24276e-05L129.292 5.39999L123.792 10.8L118.492 5.59999C115.592 2.69999 112.992 0.399988 112.792 0.399988C112.492 0.399988 109.892 2.69999 107.092 5.59999Z" fill="black"/>
<path d="M25.5 39V50H28.5C31.1 50 31.5 49.7 31.5 47.1C31.5 44.2 33.3 43 38.1 43C39.2 43 40.9 42.2 41.8 41.2C43.5 39.3 44.1 33.4 42.7 31.3C41.5 29.3 36.7 28 30.9 28H25.5V39ZM38.5 33.9C39.8 36.4 39.8 36.6 37.9 38.4C37.1 39.3 35.3 40 33.9 40C31.8 40 31.5 39.6 31.5 36C31.5 32.2 31.7 32 34.5 32C36.4 32 37.8 32.7 38.5 33.9Z" fill="black"/>
<path d="M56.5 39V50H59C61.3 50 61.5 49.6 61.5 45.5V41H66.5H71.5V45.5C71.5 49.6 71.7 50 74 50H76.5V39V28H74C71.7 28 71.5 28.4 71.5 32.5V37H66.5H61.5V32.5C61.5 28.4 61.3 28 59 28H56.5V39Z" fill="black"/>
<path d="M90.5 39V50H93C95.1 50 95.5 49.5 95.5 47C95.5 44.5 95.9 44 97.9 44C99.6 44 101 45 102.2 47C103.4 49.2 104.7 50 106.7 50H109.4L107.3 46.5C105.4 43.2 105.4 42.8 106.9 41.1C108.5 39.3 109 33.4 107.7 31.3C106.5 29.3 101.7 28 95.9 28H90.5V39ZM103.5 33.9C104.8 36.4 104.8 36.6 102.9 38.4C102.1 39.3 100 40 98.4 40C95.7 40 95.5 39.8 95.5 36C95.5 32.1 95.6 32 99 32C101.4 32 102.7 32.6 103.5 33.9Z" fill="black"/>
<path d="M128.6 30.2C128.1 31.5 126.1 36.3 124.1 40.8C122.1 45.4 120.5 49.4 120.5 49.6C120.5 49.8 121.6 50 122.9 50C124.5 50 125.6 49.3 126 48C126.5 46.3 127.5 46 132 46C136.5 46 137.5 46.3 138 48C138.4 49.3 139.5 50 141.1 50C142.4 50 143.5 49.7 143.5 49.3C143.5 48.9 141.6 43.9 139.3 38.3C135.3 28.8 134.8 28 132.2 28C130.3 28 129.2 28.7 128.6 30.2ZM134 37.6C135.9 42.3 136.1 42 132 42C129.7 42 128.7 41.6 129 40.7C130.8 35.7 131.5 34 132 34C132.2 34 133.2 35.6 134 37.6Z" fill="black"/>
<path d="M158.7 29.2C156.1 30.5 154.8 34.6 156.2 36.9C156.8 37.8 159 39.2 161.1 40C167.1 42.3 167.8 42.9 166.4 44.6C164.9 46.4 162.7 46.4 159.1 44.5C156.2 43 154.6 43.6 154.5 46.3C154.5 47.5 161.1 50 164.3 50C168.1 50 172.5 46.5 172.5 43.5C172.5 40.9 168.3 37 165.6 37C164.6 37 163 36.4 161.9 35.6C160.4 34.4 160.2 33.9 161.3 32.9C162.2 31.9 163.4 31.8 166.5 32.7C170 33.6 170.7 33.5 171.5 32C173.3 28.7 164 26.7 158.7 29.2Z" fill="black"/>
<path d="M185.5 39V50H194C201.8 50 202.5 49.8 202.5 48C202.5 46.2 201.8 46 196.5 46C190.8 46 190.5 45.9 190.5 43.5C190.5 41.2 190.8 41 195.5 41C199.8 41 200.5 40.7 200.5 39C200.5 37.3 199.8 37 195.5 37C190.8 37 190.5 36.8 190.5 34.5C190.5 32.1 190.8 32 196 32C200.8 32 201.5 31.8 201.5 30C201.5 28.2 200.8 28 193.5 28H185.5V39Z" fill="black"/>
<path d="M215.5 39V50H218H220.5V39V28H218H215.5V39Z" fill="black"/>
<path d="M4 38.5V77H6.5H9V38.5V1.3113e-06H6.5H4V38.5Z" fill="black"/>
<path d="M268 38.5V77H270.5H273V38.5V1.3113e-06H270.5H268V38.5Z" fill="black"/>
<path d="M232.5 30C232.5 31.6 233.2 32 236 32H239.5V41C239.5 49.9 239.5 50 242 50C244.5 50 244.5 49.9 244.5 41V32H248C250.8 32 251.5 31.6 251.5 30C251.5 28.1 250.8 28 242 28C233.2 28 232.5 28.1 232.5 30Z" fill="black"/>
<path d="M79 64.5C79 65.3 81.5 68.3 84.5 71.3L90 76.7L95.5 71.3L101 65.9L106.5 71.3L112 76.7L117.5 71.3L123 65.9L128.5 71.3L134 76.7L139.5 71.3L145 65.9L148 68.8C150 70.8 151 71.2 151 70.2C151 69.3 149.7 67.4 148.1 65.8L145.1 63L139.9 67.7C137.1 70.2 134.5 72.3 134.1 72.3C133.8 72.3 131.1 70.2 128.2 67.7L122.9 63L119.2 66.5C112 73.1 112.6 73.1 106.4 67.8L100.9 63L97.2 66.5C90 73.1 90.6 73.1 84.5 67.8C81.5 65.3 79 63.8 79 64.5Z" fill="black"/>
<path d="M123 64.5C123 65.3 125.5 68.3 128.5 71.3L134 76.7L139.5 71.3L145 65.9L150.5 71.3L156 76.7L161.5 71.3L167 65.9L172.5 71.3L178 76.7L183.5 71.3L189 65.9L192 68.8C194 70.8 195 71.2 195 70.2C195 69.3 193.7 67.4 192.1 65.8L189.1 63L183.9 67.7C181.1 70.2 178.5 72.3 178.1 72.3C177.8 72.3 175.1 70.2 172.2 67.7L166.9 63L163.2 66.5C156 73.1 156.6 73.1 150.4 67.8L144.9 63L141.2 66.5C134 73.1 134.6 73.1 128.5 67.8C125.5 65.3 123 63.8 123 64.5Z" fill="black"/>
</g>
<defs>
<filter id="filter0_d_2_3" x="0" y="0" width="277" height="85" filterUnits="userSpaceOnUse" color-interpolation-filters="sRGB">
<feFlood flood-opacity="0" result="BackgroundImageFix"/>
<feColorMatrix in="SourceAlpha" type="matrix" values="0 0 0 0 0 0 0 0 0 0 0 0 0 0 0 0 0 0 127 0" result="hardAlpha"/>
<feOffset dy="4"/>
<feGaussianBlur stdDeviation="2"/>
<feComposite in2="hardAlpha" operator="out"/>
<feColorMatrix type="matrix" values="0 0 0 0 0 0 0 0 0 0 0 0 0 0 0 0 0 0 0.25 0"/>
<feBlend mode="normal" in2="BackgroundImageFix" result="effect1_dropShadow_2_3"/>
<feBlend mode="normal" in="SourceGraphic" in2="effect1_dropShadow_2_3" result="shape"/>
</filter>
</defs>
</svg>
