<svg width="130" height="148" viewBox="0 0 130 148" fill="none" xmlns="http://www.w3.org/2000/svg">
<path d="M78.2541 28.5805C78.8876 31.2945 79.4038 34.1481 79.8025 37.1414C80.1568 40.1265 80.3754 43.2251 80.4585 46.4369C88.301 49.2195 94.6996 54.189 99.6541 61.3452C102.86 65.9757 105.005 70.8734 106.09 76.0383C107.131 81.195 107.154 86.3164 106.161 91.4024C105.149 96.462 103.178 101.232 100.247 105.713C97.3167 110.194 93.4837 114.074 88.7479 117.353C84.0122 120.631 79.0092 122.85 73.7391 124.008C68.4427 125.184 63.2171 125.337 58.0624 124.469C52.8813 123.619 48.0472 121.809 43.5603 119.039C39.0288 116.26 35.1783 112.582 32.0088 108.004C28.8394 103.426 26.7476 98.5495 25.7335 93.3746C24.7194 88.1996 24.7355 83.0509 25.7817 77.9285C26.7834 72.798 28.7535 67.97 31.692 63.4446C34.6042 58.9374 38.4151 55.0535 43.1245 51.793C47.7024 48.6235 52.6487 46.4639 57.9633 45.3142C63.2334 44.1565 68.465 44.0956 73.6583 45.1317C73.3951 42.2781 73.05 39.559 72.6229 36.9746C72.1958 34.3901 71.6604 31.9585 71.0168 29.6796L78.2541 28.5805ZM93.8802 65.4012C92.1133 62.8491 90.0641 60.6482 87.7325 58.7985C85.401 56.9487 82.859 55.4977 80.1065 54.4453C80.0216 57.6957 79.7677 60.9268 79.3448 64.1386C78.8956 67.3687 78.3027 70.5037 77.566 73.5435L72.5509 73.0458C73.8278 66.4014 74.4237 59.6448 74.3385 52.7758C69.8374 51.7276 65.2787 51.6922 60.6623 52.6699C56.0277 53.6212 51.6845 55.4995 47.6328 58.3046C43.6864 61.0369 40.4806 64.2489 38.0157 67.9404C35.5062 71.6239 33.8174 75.5371 32.9492 79.6799C32.0366 83.8147 31.981 87.9788 32.7826 92.1722C33.5659 96.3393 35.2418 100.278 37.8101 103.987C40.3967 107.723 43.5115 110.704 47.1545 112.931C50.7975 115.157 54.7238 116.583 58.9334 117.211C63.1431 117.838 67.4225 117.639 71.7718 116.612C76.121 115.586 80.2952 113.689 84.2943 110.92C88.267 108.169 91.495 104.962 93.9782 101.296C96.4614 97.631 98.133 93.7492 98.993 89.6509C99.8531 85.5526 99.8783 81.429 99.0686 77.2801C98.2144 73.1231 96.485 69.1635 93.8802 65.4012Z" fill="#46466D"/>
<path d="M42.4727 25.1265C42.3769 21.4477 43.5339 18.5526 45.9437 16.4411C48.3864 14.3608 51.8629 13.2619 56.3734 13.1444L87.5628 12.3319L87.4328 7.34161L92.711 7.20411L92.841 12.1944L111.219 11.7157L111.401 18.7213L93.0235 19.2L93.3423 31.4359L88.0641 31.5734L87.7453 19.3375L56.9398 20.14C54.2207 20.2109 52.1551 20.7928 50.7431 21.886C49.3311 22.9791 48.6505 24.5014 48.7014 26.4527C48.7505 28.3401 49.3217 29.9898 50.4148 31.4018L44.895 33.3222C44.1949 32.252 43.6337 30.9862 43.2115 29.5247C42.7573 28.064 42.511 26.598 42.4727 25.1265Z" fill="#46466D"/>
</svg>
