<svg width="269" height="77" viewBox="0 0 269 77" fill="none" xmlns="http://www.w3.org/2000/svg">
<g filter="url(#filter0_i_0_1)">
<path d="M103.092 5.59999L97.8922 10.8L95.2922 8.39999C93.8922 7.09999 92.4922 6.29999 92.1922 6.59999C91.3922 7.39999 93.1922 10.5 95.6922 12.8C97.8922 14.8 97.8922 14.8 103.292 9.39999L108.792 3.99999L114.292 9.39999L119.792 14.8L125.292 9.39999L130.792 3.99999L136.292 9.39999L141.792 14.8L147.292 9.39999L152.792 3.99999L158.292 9.39999C162.692 13.7 163.792 14.4 163.792 12.8C163.792 11.7 161.292 8.39999 158.292 5.39999L152.792 -1.24276e-05L147.292 5.39999L141.792 10.8L136.292 5.39999L130.792 -1.24276e-05L125.292 5.39999L119.792 10.8L114.492 5.59999C111.592 2.69999 108.992 0.399988 108.792 0.399988C108.492 0.399988 105.892 2.69999 103.092 5.59999Z" fill="black"/>
<path d="M21.5 39V50H24.5C27.1 50 27.5 49.7 27.5 47.1C27.5 44.2 29.3 43 34.1 43C35.2 43 36.9 42.2 37.8 41.2C39.5 39.3 40.1 33.4 38.7 31.3C37.5 29.3 32.7 28 26.9 28H21.5V39ZM34.5 33.9C35.8 36.4 35.8 36.6 33.9 38.4C33.1 39.3 31.3 40 29.9 40C27.8 40 27.5 39.6 27.5 36C27.5 32.2 27.7 32 30.5 32C32.4 32 33.8 32.7 34.5 33.9Z" fill="black"/>
<path d="M52.5 39V50H55C57.3 50 57.5 49.6 57.5 45.5V41H62.5H67.5V45.5C67.5 49.6 67.7 50 70 50H72.5V39V28H70C67.7 28 67.5 28.4 67.5 32.5V37H62.5H57.5V32.5C57.5 28.4 57.3 28 55 28H52.5V39Z" fill="black"/>
<path d="M86.5 39V50H89C91.1 50 91.5 49.5 91.5 47C91.5 44.5 91.9 44 93.9 44C95.6 44 97 45 98.2 47C99.4 49.2 100.7 50 102.7 50H105.4L103.3 46.5C101.4 43.2 101.4 42.8 102.9 41.1C104.5 39.3 105 33.4 103.7 31.3C102.5 29.3 97.7 28 91.9 28H86.5V39ZM99.5 33.9C100.8 36.4 100.8 36.6 98.9 38.4C98.1 39.3 96 40 94.4 40C91.7 40 91.5 39.8 91.5 36C91.5 32.1 91.6 32 95 32C97.4 32 98.7 32.6 99.5 33.9Z" fill="black"/>
<path d="M124.6 30.2C124.1 31.5 122.1 36.3 120.1 40.8C118.1 45.4 116.5 49.4 116.5 49.6C116.5 49.8 117.6 50 118.9 50C120.5 50 121.6 49.3 122 48C122.5 46.3 123.5 46 128 46C132.5 46 133.5 46.3 134 48C134.4 49.3 135.5 50 137.1 50C138.4 50 139.5 49.7 139.5 49.3C139.5 48.9 137.6 43.9 135.3 38.3C131.3 28.8 130.8 28 128.2 28C126.3 28 125.2 28.7 124.6 30.2ZM130 37.6C131.9 42.3 132.1 42 128 42C125.7 42 124.7 41.6 125 40.7C126.8 35.7 127.5 34 128 34C128.2 34 129.2 35.6 130 37.6Z" fill="black"/>
<path d="M154.7 29.2C152.1 30.5 150.8 34.6 152.2 36.9C152.8 37.8 155 39.2 157.1 40C163.1 42.3 163.8 42.9 162.4 44.6C160.9 46.4 158.7 46.4 155.1 44.5C152.2 43 150.6 43.6 150.5 46.3C150.5 47.5 157.1 50 160.3 50C164.1 50 168.5 46.5 168.5 43.5C168.5 40.9 164.3 37 161.6 37C160.6 37 159 36.4 157.9 35.6C156.4 34.4 156.2 33.9 157.3 32.9C158.2 31.9 159.4 31.8 162.5 32.7C166 33.6 166.7 33.5 167.5 32C169.3 28.7 160 26.7 154.7 29.2Z" fill="black"/>
<path d="M181.5 39V50H190C197.8 50 198.5 49.8 198.5 48C198.5 46.2 197.8 46 192.5 46C186.8 46 186.5 45.9 186.5 43.5C186.5 41.2 186.8 41 191.5 41C195.8 41 196.5 40.7 196.5 39C196.5 37.3 195.8 37 191.5 37C186.8 37 186.5 36.8 186.5 34.5C186.5 32.1 186.8 32 192 32C196.8 32 197.5 31.8 197.5 30C197.5 28.2 196.8 28 189.5 28H181.5V39Z" fill="black"/>
<path d="M211.5 39V50H214H216.5V39V28H214H211.5V39Z" fill="black"/>
<path d="M0 38.5V77H2.5H5V38.5V1.3113e-06H2.5H0V38.5Z" fill="black"/>
<path d="M264 38.5V77H266.5H269V38.5V1.3113e-06H266.5H264V38.5Z" fill="black"/>
<path d="M228.5 30C228.5 31.6 229.2 32 232 32H235.5V41C235.5 49.9 235.5 50 238 50C240.5 50 240.5 49.9 240.5 41V32H244C246.8 32 247.5 31.6 247.5 30C247.5 28.1 246.8 28 238 28C229.2 28 228.5 28.1 228.5 30Z" fill="black"/>
<path d="M75 64.5C75 65.3 77.5 68.3 80.5 71.3L86 76.7L91.5 71.3L97 65.9L102.5 71.3L108 76.7L113.5 71.3L119 65.9L124.5 71.3L130 76.7L135.5 71.3L141 65.9L144 68.8C146 70.8 147 71.2 147 70.2C147 69.3 145.7 67.4 144.1 65.8L141.1 63L135.9 67.7C133.1 70.2 130.5 72.3 130.1 72.3C129.8 72.3 127.1 70.2 124.2 67.7L118.9 63L115.2 66.5C108 73.1 108.6 73.1 102.4 67.8L96.9 63L93.2 66.5C86 73.1 86.6 73.1 80.5 67.8C77.5 65.3 75 63.8 75 64.5Z" fill="black"/>
<path d="M119 64.5C119 65.3 121.5 68.3 124.5 71.3L130 76.7L135.5 71.3L141 65.9L146.5 71.3L152 76.7L157.5 71.3L163 65.9L168.5 71.3L174 76.7L179.5 71.3L185 65.9L188 68.8C190 70.8 191 71.2 191 70.2C191 69.3 189.7 67.4 188.1 65.8L185.1 63L179.9 67.7C177.1 70.2 174.5 72.3 174.1 72.3C173.8 72.3 171.1 70.2 168.2 67.7L162.9 63L159.2 66.5C152 73.1 152.6 73.1 146.4 67.8L140.9 63L137.2 66.5C130 73.1 130.6 73.1 124.5 67.8C121.5 65.3 119 63.8 119 64.5Z" fill="black"/>
</g>
<defs>
<filter id="filter0_i_0_1" x="0" y="0" width="269" height="81" filterUnits="userSpaceOnUse" color-interpolation-filters="sRGB">
<feFlood flood-opacity="0" result="BackgroundImageFix"/>
<feBlend mode="normal" in="SourceGraphic" in2="BackgroundImageFix" result="shape"/>
<feColorMatrix in="SourceAlpha" type="matrix" values="0 0 0 0 0 0 0 0 0 0 0 0 0 0 0 0 0 0 127 0" result="hardAlpha"/>
<feOffset dy="4"/>
<feGaussianBlur stdDeviation="2"/>
<feComposite in2="hardAlpha" operator="arithmetic" k2="-1" k3="1"/>
<feColorMatrix type="matrix" values="0 0 0 0 0 0 0 0 0 0 0 0 0 0 0 0 0 0 0.25 0"/>
<feBlend mode="normal" in2="shape" result="effect1_innerShadow_0_1"/>
</filter>
</defs>
</svg>
