<?xml version="1.0" standalone="no"?>
<!DOCTYPE svg PUBLIC "-//W3C//DTD SVG 20010904//EN"
 "http://www.w3.org/TR/2001/REC-SVG-20010904/DTD/svg10.dtd">
<svg version="1.0" xmlns="http://www.w3.org/2000/svg"
 width="500.000000pt" height="500.000000pt" viewBox="0 0 500.000000 500.000000"
 preserveAspectRatio="xMidYMid meet">

<g transform="translate(0.000000,500.000000) scale(0.100000,-0.100000)"
fill="#000000" stroke="none">
<path d="M2210 4025 l-285 -285 -75 0 -75 0 -258 -258 -257 -257 0 -75 0 -75
-287 -287 -288 -288 288 -288 287 -287 0 -75 0 -75 258 -258 257 -257 75 0 75
0 285 -285 285 -285 285 285 285 285 75 0 74 0 263 262 263 263 0 75 0 75 282
282 283 283 -283 283 -282 282 0 75 0 75 -263 263 -263 262 -74 0 -75 0 -285
285 -285 285 -285 -285z m560 -20 l265 -265 -535 0 -535 0 265 265 c146 146
267 265 270 265 3 0 124 -119 270 -265z m-880 -293 c0 -4 -106 -113 -235 -242
-137 -136 -233 -240 -230 -248 3 -8 0 -10 -6 -6 -6 3 -40 -22 -75 -57 l-64
-63 0 55 c0 50 3 58 35 89 20 19 33 40 31 47 -3 6 0 10 7 7 7 -2 109 93 227
211 l214 215 48 0 c26 0 48 -3 48 -8z m1492 -319 l328 -328 0 -565 0 -565
-328 -328 -327 -327 -555 0 -555 0 -332 332 -333 333 0 555 0 555 332 332 333
333 555 0 555 0 327 -327z m76 75 l252 -253 0 -60 0 -60 -243 243 c-134 133
-247 239 -252 235 -4 -4 -5 -3 -2 3 3 6 -21 37 -53 69 -33 33 -60 63 -60 67 0
4 24 8 53 8 l53 0 252 -252z m-2198 -970 l0 -533 -267 267 -268 268 265 265
c146 146 266 265 267 265 2 0 3 -240 3 -532z m2747 -265 l-267 -268 0 535 0
535 267 -268 268 -267 -268 -267z m-2588 -449 c6 4 9 2 6 -6 -3 -8 93 -112
230 -248 129 -129 235 -238 235 -242 0 -5 -22 -8 -48 -8 l-48 0 -214 215
c-118 118 -220 213 -227 211 -7 -3 -10 1 -7 7 2 7 -11 28 -31 47 -32 31 -35
39 -35 89 l0 55 64 -63 c35 -35 69 -60 75 -57z m2291 59 l0 -58 -252 -252
-252 -253 -53 0 c-29 0 -53 4 -53 8 0 4 27 34 60 67 32 32 56 63 53 68 -3 6
-2 7 4 4 5 -3 117 102 249 234 131 131 240 239 241 239 2 0 3 -26 3 -57z
m-943 -850 l-267 -268 -267 268 -268 267 535 0 535 0 -268 -267z"/>
<path d="M2253 3088 l-52 -52 -26 24 c-14 13 -28 21 -31 18 -8 -8 10 -39 35
-62 22 -20 22 -20 76 34 l55 54 55 -54 55 -54 55 54 55 54 55 -54 55 -54 55
54 55 54 55 -54 c44 -43 55 -50 55 -34 0 11 -25 44 -55 74 l-55 54 -55 -54
-55 -54 -55 54 -55 54 -55 -54 -55 -54 -53 52 c-29 29 -55 52 -57 52 -3 0 -29
-23 -57 -52z"/>
<path d="M1380 2490 l0 -110 30 0 c26 0 30 3 30 29 0 29 18 41 66 41 11 0 28
8 37 18 17 19 23 78 9 99 -12 20 -60 33 -118 33 l-54 0 0 -110z m130 51 c13
-25 13 -27 -6 -45 -8 -9 -26 -16 -40 -16 -21 0 -24 4 -24 40 0 38 2 40 30 40
19 0 33 -7 40 -19z"/>
<path d="M1690 2490 l0 -110 25 0 c23 0 25 4 25 45 l0 45 50 0 50 0 0 -45 c0
-41 2 -45 25 -45 l25 0 0 110 0 110 -25 0 c-23 0 -25 -4 -25 -45 l0 -45 -50 0
-50 0 0 45 c0 41 -2 45 -25 45 l-25 0 0 -110z"/>
<path d="M2030 2490 l0 -110 25 0 c21 0 25 5 25 30 0 25 4 30 24 30 17 0 31
-10 43 -30 12 -22 25 -30 45 -30 l27 0 -21 35 c-19 33 -19 37 -4 54 16 18 21
77 8 98 -12 20 -60 33 -118 33 l-54 0 0 -110z m130 51 c13 -25 13 -27 -6 -45
-8 -9 -29 -16 -45 -16 -27 0 -29 2 -29 40 0 39 1 40 35 40 24 0 37 -6 45 -19z"/>
<path d="M2411 2578 c-5 -13 -25 -61 -45 -106 -20 -46 -36 -86 -36 -88 0 -2
11 -4 24 -4 16 0 27 7 31 20 5 17 15 20 60 20 45 0 55 -3 60 -20 4 -13 15 -20
31 -20 13 0 24 3 24 7 0 4 -19 54 -42 110 -40 95 -45 103 -71 103 -19 0 -30
-7 -36 -22z m54 -74 c19 -47 21 -44 -20 -44 -23 0 -33 4 -30 13 18 50 25 67
30 67 2 0 12 -16 20 -36z"/>
<path d="M2712 2588 c-26 -13 -39 -54 -25 -77 6 -9 28 -23 49 -31 60 -23 67
-29 53 -46 -15 -18 -37 -18 -73 1 -29 15 -45 9 -46 -18 0 -12 66 -37 98 -37
38 0 82 35 82 65 0 26 -42 65 -69 65 -10 0 -26 6 -37 14 -15 12 -17 17 -6 27
9 10 21 11 52 2 35 -9 42 -8 50 7 18 33 -75 53 -128 28z"/>
<path d="M2980 2490 l0 -110 85 0 c78 0 85 2 85 20 0 18 -7 20 -60 20 -57 0
-60 1 -60 25 0 23 3 25 50 25 43 0 50 3 50 20 0 17 -7 20 -50 20 -47 0 -50 2
-50 25 0 24 3 25 55 25 48 0 55 2 55 20 0 18 -7 20 -80 20 l-80 0 0 -110z"/>
<path d="M3280 2490 l0 -110 25 0 25 0 0 110 0 110 -25 0 -25 0 0 -110z"/>
<path d="M3450 2580 c0 -16 7 -20 35 -20 l35 0 0 -90 c0 -89 0 -90 25 -90 25
0 25 1 25 90 l0 90 35 0 c28 0 35 4 35 20 0 19 -7 20 -95 20 -88 0 -95 -1 -95
-20z"/>
<path d="M2140 2108 c0 -8 25 -38 55 -68 l55 -54 55 54 55 54 55 -54 55 -54
55 54 55 54 55 -54 55 -54 55 54 55 54 30 -29 c20 -20 30 -24 30 -14 0 9 -13
28 -29 44 l-30 28 -52 -47 c-28 -25 -54 -46 -58 -46 -3 0 -30 21 -59 46 l-53
47 -37 -35 c-72 -66 -66 -66 -128 -13 l-55 48 -37 -35 c-72 -66 -66 -66 -127
-13 -30 25 -55 40 -55 33z"/>
</g>
</svg>
